<svg width="8" height="8" viewBox="0 0 8 8" fill="none" xmlns="http://www.w3.org/2000/svg">
<path d="M1.35404 7.28397L1.00049 7.63753L0.293382 6.93042L0.646935 6.57687L1.35404 7.28397ZM6.85914 0.571768C7.13528 0.571768 7.35914 0.795626 7.35914 1.07177L7.35914 5.57177C7.35914 5.84791 7.13528 6.07177 6.85914 6.07177C6.583 6.07177 6.35914 5.84791 6.35914 5.57177L6.35914 1.57177L2.35914 1.57177C2.083 1.57177 1.85914 1.34791 1.85914 1.07177C1.85914 0.795626 2.083 0.571768 2.35914 0.571768L6.85914 0.571768ZM0.646935 6.57687L6.50559 0.718215L7.21269 1.42532L1.35404 7.28397L0.646935 6.57687Z" fill="#333333"/>
</svg>
