<svg width="12" height="15" viewBox="0 0 12 15" fill="none" xmlns="http://www.w3.org/2000/svg">
<path d="M5.25 1L5.25 0.25L6.75 0.25L6.75 1L5.25 1ZM6.53033 13.9584C6.23744 14.2513 5.76256 14.2513 5.46967 13.9584L0.696698 9.18544C0.403805 8.89254 0.403805 8.41767 0.696698 8.12478C0.989592 7.83188 1.46447 7.83188 1.75736 8.12478L6 12.3674L10.2426 8.12478C10.5355 7.83188 11.0104 7.83188 11.3033 8.12478C11.5962 8.41767 11.5962 8.89254 11.3033 9.18544L6.53033 13.9584ZM6.75 1L6.75 13.4281L5.25 13.4281L5.25 1L6.75 1Z" fill="black"/>
</svg>
