<svg width="8" height="10" viewBox="0 0 8 10" fill="none" xmlns="http://www.w3.org/2000/svg">
<path d="M3.50049 0.858276L3.50049 0.358276L4.50049 0.358276L4.50049 0.858276L3.50049 0.858276ZM4.35404 9.49722C4.15878 9.69248 3.8422 9.69248 3.64693 9.49722L0.464954 6.31523C0.269692 6.11997 0.269692 5.80339 0.464954 5.60813C0.660216 5.41287 0.976799 5.41287 1.17206 5.60813L4.00049 8.43655L6.82892 5.60813C7.02418 5.41287 7.34076 5.41287 7.53602 5.60813C7.73128 5.80339 7.73128 6.11997 7.53602 6.31523L4.35404 9.49722ZM4.50049 0.858276L4.50049 9.14366L3.50049 9.14366L3.50049 0.858276L4.50049 0.858276Z" fill="#B3B3B3"/>
</svg>
