<svg width="22" height="22" viewBox="0 0 22 22" fill="none" xmlns="http://www.w3.org/2000/svg">
<path d="M16.8161 11.8623L16.2185 11.5116C16.0308 11.4004 15.9962 11.1436 16.1518 10.988L16.7964 10.3434C19.5698 7.56994 19.5896 3.08745 16.8581 0.289293C16.7643 0.192975 16.6358 0.141112 16.5025 0.141112L0.333408 0.141113C0.148181 0.141113 1.29544e-08 0.289295 2.91475e-08 0.474521L5.32859e-07 6.23631C5.49052e-07 6.42153 0.148182 6.56972 0.333409 6.56972L10.2863 6.56972L0.234622 16.6189C0.103728 16.7498 0.103728 16.9597 0.234622 17.0906L4.90481 21.7608C5.0357 21.8917 5.24562 21.8917 5.37652 21.7608L14.8577 12.2796C15.0676 12.0697 15.4257 12.2179 15.4257 12.5143L15.4257 21.494C15.4257 21.6793 15.5739 21.8275 15.7591 21.8275L21.6666 21.8275C21.8518 21.8275 22 21.6793 22 21.494L22 20.9087C22 17.1844 20.0267 13.7417 16.8161 11.8573L16.8161 11.8623Z" fill="white"/>
</svg>
