<svg width="8" height="8" viewBox="0 0 8 8" fill="none" xmlns="http://www.w3.org/2000/svg">
<path d="M1.35383 7.28397L1.00027 7.63753L0.293168 6.93042L0.646721 6.57687L1.35383 7.28397ZM6.85893 0.571768C7.13507 0.571768 7.35893 0.795626 7.35893 1.07177L7.35893 5.57177C7.35893 5.84791 7.13507 6.07177 6.85893 6.07177C6.58278 6.07177 6.35893 5.84791 6.35893 5.57177L6.35893 1.57177L2.35893 1.57177C2.08278 1.57177 1.85893 1.34791 1.85893 1.07177C1.85893 0.795626 2.08278 0.571768 2.35893 0.571768L6.85893 0.571768ZM0.646721 6.57687L6.50537 0.718215L7.21248 1.42532L1.35383 7.28397L0.646721 6.57687Z" fill="white"/>
</svg>
