<svg width="48" height="49" viewBox="0 0 48 49" fill="none" xmlns="http://www.w3.org/2000/svg">
<rect y="0.61377" width="48" height="47.9998" rx="6" fill="black"/>
<path d="M27.601 25.144L27.1318 24.8687C26.9845 24.7814 26.9574 24.5798 27.0795 24.4577L27.5855 23.9517C29.7627 21.7745 29.7782 18.2557 27.634 16.0592C27.5603 15.9836 27.4595 15.9429 27.3548 15.9429H14.6621C14.5167 15.9429 14.4004 16.0592 14.4004 16.2046V20.7276C14.4004 20.873 14.5167 20.9893 14.6621 20.9893H22.4751L14.5846 28.8779C14.4818 28.9806 14.4818 29.1454 14.5846 29.2482L18.2507 32.9143C18.3534 33.017 18.5182 33.017 18.6209 32.9143L26.0636 25.4716C26.2284 25.3068 26.5095 25.4231 26.5095 25.6558V32.7049C26.5095 32.8503 26.6258 32.9666 26.7713 32.9666H31.4086C31.554 32.9666 31.6704 32.8503 31.6704 32.7049V32.2454C31.6704 29.3219 30.1213 26.6193 27.601 25.1401V25.144Z" fill="white"/>
<path d="M32.8278 16.5798C32.7638 16.4285 32.6746 16.2967 32.5583 16.1804C32.4439 16.066 32.3102 15.9768 32.159 15.9109C32.0077 15.845 31.8449 15.814 31.6723 15.814C31.4998 15.814 31.3389 15.8469 31.1877 15.9109C31.0364 15.9768 30.9027 16.066 30.7883 16.1804C30.6739 16.2948 30.5847 16.4285 30.5188 16.5798C30.4529 16.731 30.4219 16.8919 30.4219 17.0644C30.4219 17.237 30.4548 17.3979 30.5188 17.5491C30.5847 17.7003 30.6739 17.8341 30.7883 17.9485C30.9027 18.0629 31.0364 18.152 31.1877 18.218C31.3389 18.2839 31.4998 18.3149 31.6723 18.3149C31.8449 18.3149 32.0077 18.2819 32.159 18.218C32.3102 18.152 32.442 18.0629 32.5583 17.9485C32.6727 17.8341 32.7619 17.7003 32.8278 17.5491C32.8918 17.3979 32.9247 17.237 32.9247 17.0644C32.9247 16.8919 32.8918 16.731 32.8278 16.5798ZM32.5564 17.5762C32.4653 17.7294 32.3431 17.8535 32.188 17.9446C32.0349 18.0357 31.8623 18.0803 31.6743 18.0803C31.4862 18.0803 31.3176 18.0357 31.1644 17.9446C31.0112 17.8535 30.8872 17.7313 30.796 17.5762C30.7049 17.4231 30.6584 17.2505 30.6584 17.0644C30.6584 16.8783 30.7049 16.7058 30.796 16.5526C30.8872 16.3995 31.0112 16.2754 31.1644 16.1843C31.3176 16.0931 31.4882 16.0485 31.6743 16.0485C31.8604 16.0485 32.0349 16.0931 32.188 16.1843C32.3412 16.2754 32.4653 16.3975 32.5564 16.5526C32.6475 16.7058 32.6921 16.8783 32.6902 17.0644C32.6902 17.2525 32.6475 17.4231 32.5564 17.5762Z" fill="white"/>
<path d="M31.9693 17.1674C32.0255 17.1364 32.072 17.0937 32.1108 17.0356C32.1496 16.9774 32.167 16.9115 32.167 16.8339C32.167 16.7564 32.1496 16.6885 32.1127 16.6342C32.0759 16.58 32.0294 16.5392 31.9751 16.5121C31.9208 16.485 31.8646 16.4714 31.8064 16.4733H31.252V17.6249H31.4536V17.21H31.7715L31.9887 17.6249H32.2135L31.9673 17.1654L31.9693 17.1674ZM31.4536 16.6323H31.7444C31.7948 16.6323 31.8413 16.6478 31.882 16.6788C31.9247 16.7098 31.946 16.7622 31.946 16.8339C31.946 16.9057 31.9247 16.9599 31.884 16.9987C31.8433 17.0375 31.7948 17.0549 31.7424 17.053H31.4536V16.6323Z" fill="white"/>
</svg>
