<svg width="23" height="22" viewBox="0 0 23 22" fill="none" xmlns="http://www.w3.org/2000/svg">
<path d="M12.3623 16.8161L12.0116 16.2185C11.9004 16.0308 11.6436 15.9962 11.488 16.1518L10.8434 16.7964C8.06994 19.5698 3.58745 19.5896 0.789295 16.8581C0.692977 16.7643 0.641113 16.6358 0.641113 16.5025L0.641113 0.333408C0.641113 0.148181 0.789295 -1.76704e-09 0.974521 -3.97585e-09L6.73631 -7.26845e-08C6.92153 -7.48933e-08 7.06972 0.148181 7.06972 0.333408L7.06972 10.2863L17.1189 0.23462C17.2498 0.103727 17.4597 0.103727 17.5906 0.23462L22.2608 4.9048C22.3917 5.0357 22.3917 5.24562 22.2608 5.37651L12.7796 14.8577C12.5697 15.0676 12.7179 15.4257 13.0143 15.4257L21.9941 15.4257C22.1793 15.4257 22.3275 15.5739 22.3275 15.7591L22.3275 21.6666C22.3275 21.8518 22.1793 22 21.9941 22L21.4087 22C17.6844 22 14.2417 20.0267 12.3573 16.8161L12.3623 16.8161Z" fill="black"/>
</svg>
