<svg width="200" height="200" viewBox="0 0 200 200" fill="none" xmlns="http://www.w3.org/2000/svg">
<path d="M152.874 107.94L147.441 104.711C145.734 103.687 145.42 101.322 146.834 99.8891L152.694 93.9531C177.908 68.4122 178.087 27.1329 153.255 1.3646C152.402 0.47761 151.235 -1.45435e-06 150.022 -1.44269e-06L3.03098 -2.91475e-08C1.3471 -1.29544e-08 1.08452e-06 1.36461 2.44018e-06 3.07036L4.46101e-05 56.1308C4.59657e-05 57.8365 1.34715 59.2011 3.03103 59.2011L93.5115 59.2011L2.13303 151.744C0.943094 152.95 0.943096 154.883 2.13304 156.088L44.5893 199.096C45.7792 200.301 47.6876 200.301 48.8776 199.096L135.07 111.784C136.978 109.851 140.234 111.215 140.234 113.945L140.234 196.64C140.234 198.345 141.581 199.71 143.265 199.71L196.969 199.71C198.653 199.71 200 198.345 200 196.64L200 191.249C200 156.952 182.061 125.248 152.874 107.895L152.874 107.94Z" fill="#3A3A3A"/>
</svg>
