<svg width="1379" height="156" viewBox="0 0 1379 156" fill="none" xmlns="http://www.w3.org/2000/svg">
<path d="M17.461 67.7161C20.1606 61.192 22.8602 56.2081 25.5598 52.8163C28.2595 49.4071 32.0839 46.8459 37.0678 45.15C42.0344 43.4541 48.9911 42.5889 57.9379 42.5889V60.0498C56.242 59.9114 53.8885 59.8422 50.912 59.8422C38.2792 59.8422 29.4708 62.7841 24.5042 68.6852C19.5376 74.5689 17.0457 84.2599 17.0457 97.758V153.342H0V44.3021H17.0457V52.8163C17.0457 57.0733 16.3361 61.3304 14.9171 65.5875C14.4845 66.7297 14.2768 67.6122 14.2768 68.2525C14.2768 68.8928 14.6229 69.2735 15.3497 69.4293H15.5574C16.2669 69.4293 16.9072 68.8582 17.4783 67.7334L17.461 67.7161Z" fill="white"/>
<path d="M78.7598 103.069C79.0367 109.593 80.6461 115.668 83.5533 121.275C86.4606 126.881 90.5447 131.363 95.8055 134.686C101.066 138.026 107.158 139.687 114.114 139.687C127.595 139.687 136.611 132.298 141.162 117.537H159.056C157.637 123.922 155.007 129.962 151.182 135.638C147.34 141.314 142.235 145.969 135.85 149.586C129.464 153.203 122.006 155.02 113.491 155.02C102.849 155.02 93.6423 152.459 85.9069 147.354C78.1714 142.248 72.2703 135.43 68.2382 126.916C64.1888 118.402 62.1641 109.022 62.1641 98.795C62.1641 87.7197 64.2926 77.9249 68.5497 69.4107C72.8068 60.8966 78.8117 54.286 86.5471 49.5962C94.2826 44.9065 103.126 42.5703 113.059 42.5703C121.296 42.5703 129.066 44.4566 136.386 48.2118C143.706 51.9671 149.625 57.8335 154.176 65.7766C158.727 73.7197 160.994 83.6703 160.994 95.5936C160.994 98.0163 160.856 100.491 160.562 103.052H78.7771L78.7598 103.069ZM79.6078 89.4502H143.931C143.222 79.3613 140.245 71.4528 134.985 65.7074C129.724 59.9621 122.836 57.0894 114.322 57.0894C103.385 57.0894 95.1825 60.0313 89.7313 65.9324C84.2628 71.8162 80.8883 79.6727 79.6078 89.4675V89.4502Z" fill="white"/>
<path d="M211.767 138.318C212.199 139.668 212.407 140.983 212.407 142.263C212.407 143.959 212.978 144.825 214.103 144.825C215.228 144.825 215.799 143.977 215.799 142.263C215.799 140.983 216.007 139.668 216.439 138.318C216.872 136.968 217.149 136.086 217.287 135.653L248.177 44.2812H266.919L227.739 153.322H200.484L161.305 44.2812H180.046L210.936 135.653C211.075 136.086 211.369 136.968 211.784 138.318H211.767Z" fill="white"/>
<path d="M283.271 103.069C283.548 109.593 285.158 115.668 288.065 121.275C290.972 126.881 295.056 131.363 300.317 134.686C305.578 138.026 311.669 139.687 318.626 139.687C332.107 139.687 341.123 132.298 345.674 117.537H363.568C362.149 123.922 359.518 129.962 355.694 135.638C351.852 141.314 346.747 145.969 340.362 149.586C333.976 153.203 326.517 155.02 318.003 155.02C307.36 155.02 298.154 152.459 290.419 147.354C282.683 142.248 276.782 135.43 272.75 126.916C268.701 118.402 266.676 109.022 266.676 98.795C266.676 87.7197 268.804 77.9249 273.061 69.4107C277.319 60.8966 283.323 54.286 291.059 49.5962C298.794 44.9065 307.637 42.5703 317.57 42.5703C325.808 42.5703 333.578 44.4566 340.898 48.2118C348.218 51.9671 354.136 57.8335 358.688 65.7766C363.239 73.7197 365.506 83.6703 365.506 95.5936C365.506 98.0163 365.368 100.491 365.073 103.052H283.289L283.271 103.069ZM284.119 89.4502H348.443C347.734 79.3613 344.757 71.4528 339.496 65.7074C334.235 59.9621 327.348 57.0894 318.834 57.0894C307.897 57.0894 299.694 60.0313 294.243 65.9324C288.775 71.8162 285.4 79.6727 284.119 89.4675V89.4502Z" fill="white"/>
<path d="M399.218 153.342H382.172V0H399.218V153.342Z" fill="white"/>
<path d="M464.713 89.0178C474.802 88.4468 482.174 87.495 486.863 86.1452C491.553 84.7954 493.82 81.9227 493.682 77.5272C493.543 71.9895 491.38 67.1959 487.192 63.1465C483.004 59.0971 475.373 57.0724 464.298 57.0724C455.351 57.0724 448.498 58.9586 443.739 62.7139C438.98 66.4691 436.176 71.1242 435.329 76.6619H418.716C420.567 65.1539 425.776 56.6051 434.377 50.9982C442.96 45.3913 453.516 42.5879 466.011 42.5879C480.063 42.5879 491.034 46.0662 498.908 53.0229C506.782 59.9797 510.727 72.6817 510.727 91.1464V153.341H493.682V141.21C493.682 137.524 494.391 133.544 495.81 129.287C496.243 128.439 496.451 127.591 496.451 126.726C496.451 125.861 496.105 125.376 495.378 125.238H494.945C494.097 125.238 493.526 125.878 493.249 127.159C490.411 135.828 485.185 142.629 477.588 147.596C469.991 152.563 461.148 155.055 451.076 155.055C444.691 155.055 438.755 153.67 433.286 150.901C427.818 148.133 423.457 144.291 420.186 139.393C416.916 134.496 415.289 128.993 415.289 122.884C415.289 103 428.06 91.9251 453.62 89.6581L464.695 89.0178H464.713ZM463.657 102.014L454.07 103.502C446.975 104.644 441.576 106.617 437.89 109.473C434.204 112.311 432.352 116.429 432.352 121.829C432.352 127.228 434.238 131.554 437.994 135.24C441.749 138.926 447.183 140.778 454.278 140.778C465.924 140.778 475.356 136.625 482.606 128.318C489.84 120.012 493.543 108.054 493.682 92.427C491.415 95.1266 487.971 97.0821 483.351 98.2761C478.73 99.4875 472.171 100.733 463.657 101.997V102.014Z" fill="white"/>
<path d="M557.112 122.679C557.112 128.926 558.064 133.183 559.985 135.45C561.906 137.717 565.765 138.859 571.597 138.859H587.777V153.344H571.597C563.792 153.344 557.648 152.427 553.166 150.575C548.702 148.723 545.396 145.505 543.268 140.884C541.139 136.264 540.066 129.774 540.066 121.398V58.788H519.629V44.3036H540.066V13.6387H557.112V44.3036H587.777V58.788H557.112V122.679Z" fill="white"/>
<path d="M620.339 -0.000106812V22.1506H601.597V-0.000106812H620.339ZM619.474 44.3013V153.342H602.428V44.3013H619.474Z" fill="white"/>
<path d="M731.425 70.3762C735.543 78.9596 737.603 88.4429 737.603 98.8087C737.603 109.175 735.543 118.658 731.425 127.241C727.306 135.825 721.388 142.608 713.635 147.575C705.899 152.541 696.849 155.033 686.483 155.033C676.117 155.033 667.066 152.541 659.331 147.575C651.596 142.608 645.66 135.825 641.541 127.241C637.423 118.658 635.363 109.175 635.363 98.8087C635.363 88.4429 637.423 78.9596 641.541 70.3762C645.66 61.7928 651.578 55.0091 659.331 50.0425C667.066 45.0759 676.117 42.584 686.483 42.584C696.849 42.584 705.899 45.0759 713.635 50.0425C721.37 55.0091 727.306 61.7928 731.425 70.3762ZM720.557 98.8087C720.557 87.1623 717.511 77.4367 711.402 69.6321C705.294 61.8274 696.987 57.9164 686.483 57.9164C675.979 57.9164 667.672 61.8274 661.563 69.6321C655.455 77.4367 652.409 87.1623 652.409 98.8087C652.409 110.455 655.455 120.181 661.563 127.985C667.672 135.79 675.979 139.701 686.483 139.701C696.987 139.701 705.294 135.79 711.402 127.985C717.511 120.181 720.557 110.455 720.557 98.8087Z" fill="white"/>
<path d="M839.5 140.556C846.18 140.556 851.631 139.605 855.906 137.684C860.18 135.763 863.226 133.461 865.06 130.762C866.912 128.062 867.829 125.362 867.829 122.663C867.829 118.977 866.808 116.052 864.749 113.924C862.689 111.795 859.107 110.013 853.985 108.594C848.88 107.175 841.421 105.894 831.627 104.752C820.274 103.471 811.501 100.235 805.323 95.061C799.145 89.8867 796.064 83.5876 796.064 76.2156C796.064 70.5395 797.76 65.1403 801.169 60.0352C804.578 54.9302 809.545 50.7423 816.069 47.4716C822.593 44.2009 830.346 42.5742 839.275 42.5742C852.202 42.5742 862.309 45.8795 869.629 52.4728C876.949 59.0834 880.946 67.7014 881.656 78.3442H864.835C864.403 72.2354 862.205 67.165 858.225 63.1155C854.244 59.0661 847.72 57.0414 838.635 57.0414C829.55 57.0414 823.545 58.7892 819.357 62.2503C815.169 65.7286 813.075 69.6742 813.075 74.0698C813.075 76.6309 813.716 78.8979 814.996 80.888C816.277 82.8781 819.08 84.7644 823.407 86.5295C827.733 88.312 834.24 89.6964 842.892 90.6828C856.529 92.3787 866.929 95.5109 874.094 100.062C881.258 104.613 884.84 111.068 884.84 119.444C884.84 130.519 880.687 139.207 872.38 145.54C864.074 151.874 852.825 155.024 838.618 155.024C824.41 155.024 813.733 151.511 805.721 144.485C797.691 137.459 793.399 127.906 792.828 115.845H809.441C809.58 122.663 812.072 128.477 816.9 133.306C821.728 138.134 829.256 140.539 839.483 140.539L839.5 140.556Z" fill="white"/>
<path d="M926.778 122.683C926.778 128.93 927.729 133.187 929.65 135.454C931.571 137.721 935.43 138.863 941.262 138.863H957.443V153.348H941.262C933.458 153.348 927.314 152.431 922.832 150.579C918.367 148.727 915.062 145.508 912.934 140.888C910.805 136.267 909.732 129.778 909.732 121.402V58.7919H889.277V44.3075H909.732V13.6426H926.778V44.3075H957.443V58.7919H926.778V122.683Z" fill="white"/>
<path d="M970.578 109.043V44.3037H987.624V108.195C987.624 120.118 989.96 128.494 994.65 133.322C999.339 138.15 1005.86 140.555 1014.24 140.555C1019.92 140.555 1025.42 138.808 1030.75 135.347C1036.08 131.868 1040.44 126.936 1043.85 120.551C1047.26 114.165 1048.95 106.845 1048.95 98.6075V44.3037H1066V153.344H1048.95V144.19C1048.95 140.071 1049.66 136.16 1051.08 132.474C1051.22 132.197 1051.45 131.695 1051.72 130.986C1052 130.276 1052.12 129.67 1052.03 129.169C1051.96 128.667 1051.64 128.355 1051.08 128.217H1050.65C1049.66 128.217 1049.02 128.719 1048.73 129.705C1047.45 133.547 1045.04 137.406 1041.49 141.317C1037.95 145.228 1033.52 148.481 1028.19 151.112C1022.86 153.742 1017.15 155.057 1011.04 155.057C998.111 155.057 988.143 151.302 981.117 143.774C974.091 136.246 970.578 124.669 970.578 109.06V109.043Z" fill="white"/>
<path d="M1167.63 153.342V143.962C1167.63 140.276 1168.34 136.504 1169.76 132.679C1170.19 131.537 1170.44 130.655 1170.51 130.014C1170.57 129.374 1170.33 128.907 1169.76 128.63L1169.12 128.422C1168.27 128.422 1167.63 129.062 1167.2 130.343C1164.64 138.009 1160.07 144.049 1153.46 148.444C1146.85 152.84 1139.22 155.055 1130.57 155.055C1121.34 155.055 1113.07 152.632 1105.75 147.821C1098.43 143.01 1092.72 136.279 1088.6 127.695C1084.48 119.112 1082.42 109.49 1082.42 98.8302C1082.42 88.1702 1084.48 78.5658 1088.6 69.9651C1092.72 61.3817 1098.43 54.6672 1105.75 49.8391C1113.07 45.0109 1121.32 42.6055 1130.57 42.6055C1139.22 42.6055 1146.9 44.8033 1153.56 49.2161C1160.24 53.6116 1164.78 59.5127 1167.2 66.8847C1167.77 68.5806 1168.55 69.3075 1169.54 69.0133C1170.25 68.8748 1170.61 68.4422 1170.61 67.7327C1170.61 67.3001 1170.26 66.2444 1169.54 64.5312C1168.26 60.8452 1167.62 56.9342 1167.62 52.8156V0H1184.66V153.342H1167.62H1167.63ZM1163.15 119.268C1166.13 113.02 1167.62 106.202 1167.62 98.8302C1167.62 91.4582 1166.13 84.6399 1163.15 78.3927C1160.17 72.1455 1156.06 67.1789 1150.79 63.4929C1145.53 59.8069 1139.65 57.9552 1133.13 57.9552C1122.48 57.9552 1114.21 61.8662 1108.31 69.6709C1102.41 77.4755 1099.47 87.2011 1099.47 98.8475C1099.47 110.494 1102.41 120.219 1108.31 128.024C1114.19 135.829 1122.47 139.74 1133.13 139.74C1139.65 139.74 1145.55 137.888 1150.79 134.202C1156.04 130.516 1160.17 125.549 1163.15 119.302V119.268Z" fill="white"/>
<path d="M1225.1 0.00390625V22.1546H1206.36V0.00390625H1225.1ZM1224.25 44.3053V153.346H1207.21V44.3053H1224.25Z" fill="white"/>
<path d="M1336.19 70.3811C1340.31 78.9645 1342.36 88.4478 1342.36 98.8136C1342.36 109.179 1340.31 118.663 1336.19 127.246C1332.07 135.829 1326.15 142.613 1318.4 147.58C1310.66 152.546 1301.61 155.038 1291.24 155.038C1280.88 155.038 1271.83 152.546 1264.09 147.58C1256.36 142.613 1250.42 135.829 1246.3 127.246C1242.18 118.663 1240.12 109.179 1240.12 98.8136C1240.12 88.4478 1242.18 78.9645 1246.3 70.3811C1250.42 61.7977 1256.34 55.014 1264.09 50.0474C1271.83 45.0808 1280.88 42.5889 1291.24 42.5889C1301.61 42.5889 1310.66 45.0808 1318.4 50.0474C1326.13 55.014 1332.07 61.7977 1336.19 70.3811ZM1325.34 98.8136C1325.34 87.1672 1322.29 77.4416 1316.18 69.6369C1310.07 61.8323 1301.77 57.9213 1291.26 57.9213C1280.76 57.9213 1272.45 61.8323 1266.34 69.6369C1260.23 77.4416 1257.19 87.1672 1257.19 98.8136C1257.19 110.46 1260.23 120.186 1266.34 127.99C1272.45 135.795 1280.76 139.706 1291.26 139.706C1301.77 139.706 1310.07 135.795 1316.18 127.99C1322.29 120.186 1325.34 110.46 1325.34 98.8136Z" fill="white"/>
<path d="M1377.77 132.872C1376.94 130.934 1375.8 129.238 1374.34 127.784C1372.87 126.313 1371.18 125.171 1369.26 124.341C1367.32 123.51 1365.26 123.095 1363.04 123.095C1360.83 123.095 1358.79 123.51 1356.85 124.341C1354.91 125.171 1353.21 126.331 1351.76 127.784C1350.29 129.255 1349.15 130.951 1348.32 132.872C1347.49 134.81 1347.07 136.87 1347.07 139.067C1347.07 141.265 1347.49 143.325 1348.32 145.263C1349.15 147.201 1350.31 148.897 1351.76 150.35C1353.23 151.821 1354.93 152.964 1356.85 153.794C1358.79 154.625 1360.85 155.04 1363.04 155.04C1365.24 155.04 1367.33 154.625 1369.26 153.794C1371.19 152.964 1372.89 151.804 1374.34 150.35C1375.81 148.88 1376.96 147.184 1377.77 145.263C1378.6 143.325 1379 141.265 1379 139.067C1379 136.87 1378.58 134.81 1377.77 132.872ZM1374.29 145.609C1373.13 147.582 1371.56 149.139 1369.6 150.299C1367.63 151.458 1365.45 152.046 1363.03 152.046C1360.6 152.046 1358.47 151.458 1356.5 150.299C1354.53 149.139 1352.97 147.564 1351.79 145.609C1350.62 143.636 1350.03 141.456 1350.03 139.067C1350.03 136.679 1350.62 134.482 1351.79 132.526C1352.97 130.553 1354.53 128.996 1356.5 127.836C1358.47 126.677 1360.64 126.089 1363.03 126.089C1365.41 126.089 1367.63 126.677 1369.6 127.836C1371.57 128.996 1373.13 130.571 1374.29 132.526C1375.45 134.499 1376.02 136.679 1376 139.067C1376.02 141.473 1375.45 143.653 1374.29 145.609Z" fill="white"/>
<path d="M1366.78 140.382C1367.49 140.001 1368.1 139.447 1368.58 138.703C1369.07 137.977 1369.31 137.111 1369.31 136.125C1369.31 135.138 1369.08 134.273 1368.62 133.581C1368.15 132.889 1367.56 132.37 1366.85 132.024C1366.14 131.677 1365.43 131.504 1364.69 131.522H1357.61V146.248H1360.19V140.953H1364.25L1367.04 146.248H1369.93L1366.78 140.382ZM1360.19 133.546H1363.89C1364.53 133.546 1365.12 133.737 1365.66 134.135C1366.19 134.533 1366.47 135.19 1366.47 136.125C1366.47 137.059 1366.21 137.734 1365.67 138.219C1365.14 138.703 1364.53 138.946 1363.86 138.911H1360.17V133.529L1360.19 133.546Z" fill="white"/>
</svg>
