<?xml version="1.0" standalone="no"?>
<!DOCTYPE svg PUBLIC "-//W3C//DTD SVG 20010904//EN"
 "http://www.w3.org/TR/2001/REC-SVG-20010904/DTD/svg10.dtd">
<svg version="1.0" xmlns="http://www.w3.org/2000/svg"
 width="1167.000000pt" height="1250.000000pt" viewBox="0 0 1167.000000 1250.000000"
 preserveAspectRatio="xMidYMid meet">

<g transform="translate(0.000000,1250.000000) scale(0.100000,-0.100000)"
fill="#000000" stroke="none">
<path d="M2634 7387 c-3 -8 -4 -45 -2 -83 l3 -69 565 0 565 0 0 80 0 80 -563
3 c-466 2 -563 0 -568 -11z"/>
<path d="M3930 7315 l0 -85 803 0 802 1 -35 30 c-51 44 -163 95 -260 119 -81
19 -116 20 -697 20 l-613 0 0 -85z"/>
<path d="M5842 7318 l3 -83 473 -3 c259 -1 472 0 472 2 0 2 -14 41 -31 85
l-31 81 -444 0 -445 0 3 -82z"/>
<path d="M7471 7378 c-4 -13 -18 -49 -30 -81 -11 -32 -21 -60 -21 -62 0 -3
214 -5 475 -5 l475 0 0 85 0 85 -445 0 -445 0 -9 -22z"/>
<path d="M2637 7093 c-4 -3 -7 -41 -7 -83 l0 -77 294 -7 c162 -4 419 -4 571 0
l276 7 -3 81 -3 81 -561 3 c-308 1 -564 -1 -567 -5z"/>
<path d="M3930 7016 l0 -83 46 -7 c71 -9 1734 -7 1734 2 0 12 -34 110 -50 145
l-13 27 -859 0 -858 0 0 -84z"/>
<path d="M5844 7087 c-3 -8 -4 -47 -2 -88 l3 -74 528 -3 c418 -2 527 0 526 10
0 7 -13 47 -28 88 l-29 75 -496 3 c-410 2 -497 0 -502 -11z"/>
<path d="M7354 7053 c-9 -27 -23 -63 -31 -82 -7 -18 -13 -37 -13 -42 0 -11
494 -12 828 -2 l232 6 0 84 0 83 -499 0 -499 0 -18 -47z"/>
<path d="M2960 6700 l0 -90 250 0 250 0 0 90 0 90 -250 0 -250 0 0 -90z"/>
<path d="M4240 6700 l0 -90 250 0 250 0 0 90 0 90 -250 0 -250 0 0 -90z"/>
<path d="M5197 6783 c-9 -8 -9 -120 -1 -151 l6 -22 246 2 246 3 18 55 c9 30
17 70 17 88 l1 32 -263 0 c-145 0 -267 -3 -270 -7z"/>
<path d="M6150 6700 l0 -90 436 0 c377 0 435 2 431 14 -3 8 -18 49 -33 90
l-27 76 -403 0 -404 0 0 -90z"/>
<path d="M7255 6778 c-2 -7 -16 -44 -30 -82 -14 -37 -25 -72 -25 -77 0 -5 189
-9 430 -9 l430 0 0 90 0 90 -400 0 c-312 0 -402 -3 -405 -12z"/>
<path d="M2960 6415 l0 -85 250 0 250 0 0 85 0 85 -250 0 -250 0 0 -85z"/>
<path d="M4240 6415 l0 -85 623 0 623 0 40 43 c44 45 94 110 94 120 0 4 -310
7 -690 7 l-690 0 0 -85z"/>
<path d="M6150 6415 l0 -85 245 0 245 0 1 43 0 42 17 -43 16 -42 435 2 434 3
13 35 12 35 1 -37 1 -38 245 0 245 0 0 85 0 85 -453 0 -453 0 -19 -55 c-10
-30 -21 -55 -24 -55 -3 0 -15 24 -26 53 l-21 52 -457 3 -457 2 0 -85z"/>
<path d="M2960 6105 l0 -85 250 0 250 0 0 85 0 85 -250 0 -250 0 0 -85z"/>
<path d="M4240 6105 l0 -85 690 0 c380 0 690 3 690 6 0 9 -59 92 -92 130 l-30
34 -629 0 -629 0 0 -85z"/>
<path d="M6150 6105 l0 -85 245 0 245 0 0 85 0 85 -245 0 -245 0 0 -85z"/>
<path d="M6730 6183 c0 -5 12 -43 27 -86 l28 -77 323 2 324 3 23 60 c12 33 25
70 29 83 l7 22 -380 0 c-210 0 -381 -3 -381 -7z"/>
<path d="M7577 6183 c-4 -3 -7 -42 -7 -85 l0 -78 245 0 245 0 0 85 0 85 -238
0 c-131 0 -242 -3 -245 -7z"/>
<path d="M2960 5795 l0 -85 250 0 250 0 0 85 0 85 -250 0 -250 0 0 -85z"/>
<path d="M4240 5795 l0 -85 250 0 250 0 0 85 0 85 -250 0 -250 0 0 -85z"/>
<path d="M5207 5873 c-4 -3 -7 -42 -7 -85 l0 -78 261 0 262 0 -6 53 c-4 29
-12 68 -18 85 l-11 32 -237 0 c-131 0 -241 -3 -244 -7z"/>
<path d="M6150 5795 l0 -85 245 0 245 0 0 85 0 85 -245 0 -245 0 0 -85z"/>
<path d="M6840 5873 c0 -4 12 -42 28 -85 l27 -78 214 2 215 3 27 75 c15 41 28
78 28 83 1 4 -120 7 -269 7 -148 0 -270 -3 -270 -7z"/>
<path d="M7577 5873 c-4 -3 -7 -42 -7 -85 l0 -78 245 0 245 0 0 85 0 85 -238
0 c-131 0 -242 -3 -245 -7z"/>
<path d="M8700 5611 c-189 -62 -253 -293 -118 -431 55 -57 108 -80 188 -80
274 0 360 366 115 492 -43 22 -144 33 -185 19z m171 -64 c68 -36 103 -93 107
-176 6 -97 -29 -160 -113 -204 -104 -53 -235 -7 -290 102 -28 55 -18 158 20
212 41 58 102 89 175 89 40 0 70 -7 101 -23z"/>
<path d="M8670 5350 c0 -133 1 -140 20 -140 18 0 20 7 20 60 l0 60 39 0 c38 0
42 -3 78 -60 28 -44 44 -60 61 -60 12 0 22 3 22 8 0 15 -71 112 -82 112 -6 0
4 10 23 23 44 29 51 77 18 113 -20 22 -31 24 -111 24 l-88 0 0 -140z m164 94
c38 -37 3 -74 -71 -74 l-53 0 0 45 0 45 54 0 c36 0 60 -5 70 -16z"/>
<path d="M2640 5485 l0 -85 565 0 565 0 0 85 0 85 -565 0 -565 0 0 -85z"/>
<path d="M3930 5485 l0 -85 857 2 858 3 22 55 c12 30 25 67 28 83 l7 27 -886
0 -886 0 0 -85z"/>
<path d="M5840 5485 l0 -85 400 0 400 0 0 85 0 85 -400 0 -400 0 0 -85z"/>
<path d="M6951 5563 c0 -5 12 -42 27 -83 l27 -75 104 0 105 0 27 75 c15 41 28
78 28 83 1 4 -71 7 -159 7 -88 0 -160 -3 -159 -7z"/>
<path d="M7577 5563 c-9 -8 -9 -126 -1 -147 5 -14 50 -16 400 -16 l394 0 0 85
0 85 -393 0 c-217 0 -397 -3 -400 -7z"/>
<path d="M2640 5200 l0 -90 565 0 565 0 0 90 0 90 -565 0 -565 0 0 -90z"/>
<path d="M3930 5200 l0 -90 633 0 c595 0 638 1 710 19 99 26 180 66 236 118
l46 42 -812 1 -813 0 0 -90z"/>
<path d="M5840 5200 l0 -90 400 0 400 0 0 90 0 90 -400 0 -400 0 0 -90z"/>
<path d="M7052 5278 c3 -7 15 -43 27 -80 13 -38 26 -68 31 -68 5 0 18 30 31
68 12 37 24 73 27 80 3 9 -12 12 -58 12 -46 0 -61 -3 -58 -12z"/>
<path d="M7574 5277 c-3 -8 -4 -47 -2 -88 l3 -74 398 -3 397 -2 0 90 0 90
-395 0 c-322 0 -397 -3 -401 -13z"/>
</g>
</svg>
