<?xml version="1.0" standalone="no"?>
<!DOCTYPE svg PUBLIC "-//W3C//DTD SVG 20010904//EN"
 "http://www.w3.org/TR/2001/REC-SVG-20010904/DTD/svg10.dtd">
<svg version="1.0" xmlns="http://www.w3.org/2000/svg"
 width="1835.000000pt" height="1071.000000pt" viewBox="0 0 1835.000000 1071.000000"
 preserveAspectRatio="xMidYMid meet">

<g transform="translate(0.000000,1071.000000) scale(0.100000,-0.100000)"
fill="#000000" stroke="none">
<path d="M9145 10704 c-60 -13 -111 -98 -94 -157 12 -42 56 -85 98 -97 20 -5
73 -10 119 -10 94 0 251 -22 363 -50 269 -69 518 -197 738 -380 l91 -75 0
-1232 c0 -678 -4 -1233 -8 -1233 -5 0 -318 313 -698 695 -1905 1922 -1926
1943 -1967 1950 -46 7 -101 -17 -131 -58 -21 -28 -21 -29 -21 -1485 0 -1374 1
-1459 18 -1489 32 -60 105 -79 173 -47 59 28 65 53 62 237 -1 89 -1 666 0
1282 l2 1120 463 -465 c255 -256 838 -843 1297 -1305 458 -462 847 -850 864
-862 40 -30 107 -31 148 -2 61 44 58 -45 58 1531 0 1646 12 1457 -98 1562
-260 248 -589 424 -964 516 -152 37 -447 68 -513 54z"/>
<path d="M7827 5480 c-86 -22 -187 -91 -187 -128 0 -45 44 -54 87 -18 30 25
74 49 111 60 l22 7 0 -260 c0 -144 4 -271 10 -285 10 -28 47 -35 68 -14 9 9
12 86 12 285 0 150 2 273 4 273 20 0 96 -36 126 -60 41 -32 59 -37 78 -18 54
54 -86 153 -232 163 -34 2 -78 0 -99 -5z"/>
<path d="M10352 5475 c-64 -18 -97 -35 -140 -72 l-33 -28 0 -221 c0 -121 3
-227 6 -235 8 -21 94 -77 148 -95 35 -12 71 -15 131 -12 91 5 148 26 211 81
32 28 37 37 31 60 -9 37 -46 36 -94 -2 -42 -33 -117 -61 -166 -61 -46 0 -128
26 -160 51 -24 19 -26 27 -26 90 l0 69 154 0 c171 0 206 7 206 43 0 44 -14 47
-192 47 l-168 0 0 73 c1 65 3 74 25 90 94 69 243 61 337 -18 32 -27 57 -32 76
-13 33 33 -7 83 -104 129 -76 36 -166 45 -242 24z"/>
<path d="M8918 5459 c-17 -9 -18 -35 -18 -314 l0 -305 25 -6 c48 -12 55 7 55
142 l0 124 185 0 184 0 3 -126 c3 -108 6 -128 21 -138 12 -8 22 -8 35 0 15 10
17 37 20 295 1 156 0 294 -3 305 -6 27 -30 37 -56 24 -17 -10 -19 -23 -19
-140 l0 -130 -185 0 -185 0 0 124 c0 100 -3 128 -16 140 -18 19 -23 19 -46 5z"/>
<path d="M1021 3763 c-70 -36 -94 -110 -57 -181 24 -46 60 -60 180 -71 161
-16 292 -66 423 -163 l53 -39 0 -537 0 -537 -39 40 c-21 22 -211 218 -422 435
-211 218 -510 525 -664 684 -154 158 -292 294 -307 302 -38 20 -85 17 -122 -6
-64 -39 -61 12 -61 -944 0 -839 1 -872 19 -899 40 -59 118 -74 177 -34 18 12
39 34 46 47 10 19 13 182 13 708 0 426 4 682 9 680 6 -1 108 -105 228 -229
688 -712 1169 -1202 1194 -1214 65 -34 140 -10 174 55 22 42 23 1516 1 1558
-20 39 -98 109 -186 169 -176 118 -327 170 -550 187 -60 5 -82 3 -109 -11z"/>
<path d="M3276 3769 c-124 -12 -222 -41 -351 -104 -116 -56 -210 -122 -285
-199 l-45 -47 -3 -765 c-3 -845 -6 -804 61 -844 41 -26 93 -25 135 0 59 36 62
56 62 385 l0 295 544 0 545 0 3 -307 c3 -283 5 -310 22 -336 39 -57 114 -73
173 -37 67 40 64 -1 61 844 l-3 765 -45 47 c-110 114 -310 230 -470 273 -67
18 -256 43 -299 40 -9 -1 -56 -6 -105 -10z m334 -279 c92 -26 197 -77 272
-133 l58 -42 0 -282 0 -283 -545 0 -545 0 0 283 0 282 55 40 c106 77 233 132
362 155 78 14 258 4 343 -20z"/>
<path d="M8640 3773 c-177 -17 -365 -85 -511 -184 -82 -55 -170 -139 -186
-176 -19 -47 -19 -1278 0 -1326 16 -38 111 -128 190 -180 221 -147 493 -211
743 -176 215 30 430 127 584 265 83 76 80 58 80 444 0 285 -2 346 -15 370 -31
59 -37 60 -453 60 -370 0 -380 -1 -406 -21 -56 -44 -70 -110 -36 -166 41 -67
43 -68 367 -71 l293 -3 0 -209 0 -209 -53 -40 c-72 -55 -196 -115 -292 -143
-119 -34 -306 -31 -428 6 -107 32 -182 69 -264 130 l-63 46 0 560 0 560 63 46
c82 61 157 98 264 131 77 23 105 26 218 26 98 -1 149 -6 210 -22 105 -27 225
-89 305 -156 36 -30 79 -64 95 -75 32 -21 88 -26 129 -10 56 21 84 117 51 179
-17 33 -105 111 -194 171 -192 129 -459 196 -691 173z"/>
<path d="M10890 3769 c-208 -22 -397 -104 -572 -246 -120 -97 -109 -4 -106
-892 l3 -771 31 -31 c42 -42 108 -51 157 -20 60 37 62 45 65 379 l3 302 545 0
544 0 0 -295 c0 -329 3 -349 62 -385 66 -40 155 -13 184 55 21 51 21 1512 0
1553 -31 61 -186 182 -312 245 -179 90 -398 128 -604 106z m337 -279 c89 -24
198 -77 278 -135 l55 -40 0 -282 0 -283 -545 0 -545 0 0 283 0 283 64 47 c97
71 222 123 354 147 76 14 251 4 339 -20z"/>
<path d="M12973 3770 c-207 -29 -390 -108 -550 -235 -97 -77 -118 -108 -118
-173 0 -49 3 -56 39 -89 36 -33 42 -35 91 -31 48 4 59 10 115 61 69 62 166
122 250 155 67 26 162 51 173 45 4 -2 7 -369 7 -815 0 -745 1 -812 17 -839 45
-76 171 -76 216 0 16 27 17 94 17 840 l0 811 24 0 c45 0 180 -49 258 -94 42
-24 107 -70 143 -102 60 -52 71 -58 119 -62 50 -4 56 -2 91 30 46 42 57 104
28 154 -52 90 -275 238 -441 294 -145 48 -345 69 -479 50z"/>
<path d="M15120 3773 c-188 -14 -376 -79 -531 -184 -82 -55 -170 -139 -186
-176 -20 -48 -19 -1279 1 -1327 26 -62 185 -191 313 -252 322 -155 675 -150
987 14 100 53 239 160 273 211 l23 34 0 654 c0 556 -2 658 -15 682 -15 31
-136 133 -222 188 -69 44 -190 96 -283 122 -68 18 -258 44 -299 39 -9 -1 -36
-3 -61 -5z m289 -283 c103 -29 204 -78 279 -134 l62 -48 0 -558 0 -558 -62
-48 c-76 -57 -177 -105 -284 -136 -111 -32 -305 -32 -417 0 -96 27 -216 87
-285 141 l-52 41 0 558 0 558 28 26 c89 82 253 156 397 179 81 13 252 2 334
-21z"/>
<path d="M17410 3770 c-199 -21 -378 -90 -535 -208 -94 -69 -140 -116 -154
-155 -8 -19 -11 -271 -11 -768 0 -803 -1 -783 55 -827 35 -28 99 -29 142 -2
66 40 63 5 63 789 l0 709 38 30 c66 52 175 110 255 137 132 44 317 50 462 15
58 -14 201 -79 246 -111 l31 -22 -305 -306 c-167 -168 -312 -317 -321 -331
-19 -29 -21 -96 -3 -127 15 -26 728 -749 771 -780 96 -73 236 31 193 144 -7
19 -142 164 -340 364 l-328 333 314 315 c173 174 320 326 326 338 17 33 13 94
-7 128 -21 35 -131 126 -215 179 -133 85 -297 140 -465 156 -59 5 -114 9 -122
9 -8 -1 -49 -5 -90 -9z"/>
<path d="M4590 3672 c-38 -38 -45 -56 -40 -112 3 -38 9 -45 182 -258 89 -108
209 -255 268 -327 58 -71 294 -361 524 -643 240 -295 429 -518 446 -527 50
-26 102 -19 146 19 l39 34 3 876 c3 969 6 916 -61 956 -59 36 -146 16 -179
-42 -10 -18 -14 -167 -18 -706 l-5 -682 -561 702 c-309 387 -571 712 -583 722
-12 11 -41 21 -71 24 -47 4 -52 3 -90 -36z"/>
<path d="M6990 3697 c-13 -7 -35 -28 -47 -46 l-23 -34 0 -867 0 -867 23 -34
c60 -89 184 -76 221 23 15 39 16 124 14 893 -3 791 -4 852 -21 882 -30 56
-108 80 -167 50z"/>
<path d="M4680 681 c-41 -13 -105 -48 -139 -76 l-31 -27 0 -228 0 -228 33 -28
c17 -15 57 -39 87 -53 75 -36 210 -37 283 -4 103 48 150 106 115 141 -19 19
-34 15 -82 -22 -90 -68 -198 -79 -295 -29 l-56 29 0 194 0 194 40 23 c102 58
200 52 305 -19 50 -33 62 -37 80 -28 54 29 -11 107 -125 149 -57 22 -164 27
-215 12z"/>
<path d="M6133 676 c-55 -18 -107 -50 -138 -87 l-25 -31 0 -212 0 -212 33 -31
c17 -18 57 -44 87 -60 49 -25 66 -28 150 -28 83 0 102 3 150 27 30 15 70 41
88 57 l32 30 0 221 0 222 -31 29 c-57 53 -133 82 -223 86 -50 2 -97 -2 -123
-11z m216 -92 c72 -30 71 -26 71 -235 l0 -188 -27 -19 c-81 -55 -179 -61 -270
-16 l-58 29 -3 192 -2 191 27 19 c77 53 175 63 262 27z"/>
<path d="M9073 676 c-51 -17 -122 -57 -146 -83 -16 -18 -17 -43 -15 -283 3
-238 5 -264 21 -274 12 -8 22 -8 35 0 14 9 18 32 22 140 l5 129 209 3 c134 1
214 6 223 13 9 8 13 44 13 134 l0 123 -31 27 c-65 54 -128 78 -214 82 -49 2
-96 -2 -122 -11z m231 -104 l51 -27 0 -75 0 -75 -180 0 -180 0 -3 71 -3 72 36
22 c91 56 189 61 279 12z"/>
<path d="M10531 674 c-53 -19 -86 -39 -123 -73 l-28 -25 0 -261 c0 -263 3
-285 36 -285 34 0 44 30 44 136 l0 104 183 -2 182 -3 5 -109 c4 -89 8 -111 23
-120 12 -8 22 -8 35 0 15 10 17 36 20 277 l2 265 -39 31 c-65 52 -127 74 -216
78 -56 2 -93 -2 -124 -13z m239 -102 l55 -28 3 -97 3 -97 -186 0 -185 0 0 94
c0 92 1 95 28 114 85 58 185 64 282 14z"/>
<path d="M7451 656 c-8 -9 -11 -100 -9 -311 3 -271 5 -299 21 -309 12 -8 22
-8 35 0 15 10 17 35 20 238 1 124 6 226 10 226 4 -1 40 -43 81 -95 55 -71 80
-95 97 -95 17 0 44 25 101 95 l78 96 5 -226 c4 -186 8 -227 20 -235 24 -15 38
-12 55 14 23 35 18 592 -5 606 -32 20 -51 6 -150 -116 -56 -69 -106 -122 -110
-117 -3 4 -47 58 -96 118 -48 61 -93 113 -99 117 -16 12 -42 9 -54 -6z"/>
<path d="M11852 658 c-9 -9 -12 -90 -12 -304 0 -253 2 -295 16 -308 20 -20 38
-20 55 1 11 12 15 70 19 233 l5 217 170 -210 c94 -115 180 -220 192 -233 26
-28 45 -30 67 -8 14 13 16 55 16 304 0 249 -2 291 -16 304 -18 18 -32 20 -54
6 -12 -8 -16 -49 -20 -234 l-5 -224 -168 207 c-92 113 -179 219 -193 234 -27
29 -53 34 -72 15z"/>
<path d="M13320 655 c-21 -25 -4 -56 104 -187 l104 -126 4 -146 c2 -117 6
-149 18 -156 22 -14 36 -12 54 6 13 12 16 41 16 153 l0 137 110 134 c106 131
123 163 98 188 -26 26 -49 9 -150 -114 l-102 -126 -19 24 c-182 227 -207 249
-237 213z"/>
</g>
</svg>
