<svg width="412" height="32" viewBox="0 0 412 32" fill="none" xmlns="http://www.w3.org/2000/svg">
<path fill-rule="evenodd" clip-rule="evenodd" d="M278.241 12.6686C280.384 13.1424 282.207 13.6434 283.658 14.1594V14.1534C285.137 14.6815 286.426 15.5808 287.491 16.8301C288.565 18.0916 289.112 19.7996 289.112 21.903C289.112 23.8887 288.586 25.6601 287.548 27.166C286.513 28.6689 285.044 29.8549 283.176 30.6878C281.317 31.5177 279.108 31.9401 276.778 31.9401C274.448 31.9401 272.302 31.5177 270.401 30.6878C268.494 29.8549 266.94 28.6568 265.781 27.1298C264.806 25.8442 264.161 24.3866 263.865 22.8023C263.75 22.1897 264.164 21.5952 264.785 21.4745L269.007 20.6597C269.079 20.6446 269.155 20.6386 269.227 20.6386C269.768 20.6386 270.241 21.0248 270.353 21.556C270.507 22.3044 270.8 22.9985 271.216 23.6171C271.786 24.4711 272.58 25.1501 273.573 25.633C274.569 26.1188 275.704 26.3633 276.947 26.3633C277.997 26.3633 278.917 26.2003 279.681 25.8804C280.366 25.5938 280.918 25.2105 281.329 24.7397C281.878 24.109 282.143 23.2671 282.056 22.4311C281.99 21.7944 281.739 21.2934 281.292 20.9011C280.746 20.4213 280.07 20.041 279.277 19.7725C278.465 19.4979 277.261 19.2051 275.685 18.9003C273.543 18.4265 271.732 17.9256 270.308 17.4095C268.856 16.8845 267.595 15.9821 266.557 14.7328C265.513 13.4744 264.981 11.7693 264.981 9.66292C264.981 7.78888 265.449 6.09892 266.373 4.6353C267.296 3.17168 268.621 2.02191 270.308 1.21315C271.986 0.4074 273.923 0 276.066 0C278.039 0 279.847 0.362133 281.443 1.08338C283.043 1.80765 284.362 2.82766 285.369 4.11625C286.178 5.15738 286.764 6.33431 287.105 7.61988C287.186 7.92468 287.144 8.24155 286.981 8.51315C286.821 8.78173 286.564 8.97185 286.26 9.04427L282.406 9.97375C282.318 9.99487 282.228 10.0069 282.137 10.0069C281.603 10.0069 281.142 9.63878 281.012 9.10765C280.785 8.19024 280.324 7.41468 279.639 6.79905C278.736 5.99028 277.605 5.57987 276.274 5.57987C275.417 5.57987 274.653 5.72774 274.001 6.02046C273.359 6.30715 272.855 6.71153 272.505 7.21852C272.158 7.72249 271.98 8.29285 271.98 8.91149C271.98 9.69008 272.233 10.2846 272.758 10.7312C273.304 11.199 273.968 11.5641 274.732 11.8176C275.513 12.0802 276.69 12.3638 278.241 12.6686ZM116.299 0.0512695C107.107 0.0512695 99.6684 6.63605 99.6684 15.9248C99.6684 26.3904 108.203 31.9431 116.173 31.9612C125.365 31.9612 133.175 25.295 133.175 15.9248C133.175 6.55458 125.573 0.0512695 116.299 0.0512695ZM116.333 28.7895C109.7 28.7895 107.88 20.9976 107.88 15.798C107.88 8.89033 110.97 3.24106 116.366 3.24106C123.08 3.24106 124.93 10.7764 124.93 16.0877C124.945 21.4805 123.095 28.7745 116.333 28.7895ZM14.0236 2.99862C11.6094 2.99862 8.7425 4.33248 8.7425 7.05451C8.7425 10.3739 12.2168 11.1753 16.1046 12.072C21.0424 13.2108 26.647 14.5035 26.647 21.3044C26.647 25.8281 22.7178 31.9934 13.1062 31.9934C2.70393 31.9602 0 26.4075 0 24.6029C0 23.4259 0.85403 22.3003 2.07623 22.3003C3.21695 22.3003 3.55494 22.5598 5.40785 25.3121C6.40674 26.827 8.77267 28.6618 12.7018 28.6618C15.5989 28.6618 19.19 27.1469 19.19 23.8152C19.19 20.5976 15.752 19.8377 11.8756 18.9808C6.86654 17.8736 1.12563 16.6046 1.12563 9.66187C1.12563 7.65203 2.78541 0.0683594 13.6675 0.0683594C16.7758 0.0683594 20.204 0.807715 22.9894 2.24418C23.5055 2.53388 23.9732 2.87187 24.1332 3.45129C24.4379 4.44715 24.4379 6.2035 24.4379 7.21747C24.4379 8.23144 23.94 8.94062 22.8778 8.94062C22.0515 8.94062 21.5709 8.15294 20.9596 7.15116C19.892 5.40146 18.4259 2.99862 14.0236 2.99862ZM49.0784 25.9405C49.7378 25.1982 50.6225 24.2023 51.5983 24.2023L51.6043 24.1992C52.3587 24.1992 53.1162 24.7938 53.1162 25.5512C53.1162 26.6768 52.57 28.3185 52.1837 29.3657C51.6375 31.122 51.2995 31.282 49.3983 31.282H29.9004C28.968 31.282 27.8242 30.9742 27.8242 29.8485C27.8242 29.1062 28.292 28.8496 28.8865 28.5599C29.9789 28.0922 30.0604 27.4313 30.0604 25.9677V5.95679C30.0604 4.33021 30.0604 3.73571 29.0796 3.49429C28.0656 3.18647 27.8242 2.81831 27.8242 2.06084C27.8242 0.935214 28.968 0.645508 29.9004 0.645508H49.2353C50.4907 0.645508 51.215 0.72397 51.553 1.14344C52.1022 1.80433 52.2622 4.23666 52.2622 5.12087C52.2622 6.08957 51.8276 6.9255 50.7322 6.9255C49.8781 6.9255 49.4266 6.399 48.937 5.8282L48.937 5.82815L48.9369 5.8281L48.9369 5.82806C48.892 5.77566 48.8467 5.72288 48.8008 5.6701C47.2074 3.91376 46.628 3.60896 42.2975 3.60896C37.967 3.60896 37.7406 4.49619 37.7406 5.33211V12.9973H43.746C45.4926 12.9973 46.0428 12.466 46.4978 12.0265C46.8188 11.7165 47.0925 11.4522 47.7053 11.4522C49.187 11.4522 49.187 13.287 49.187 14.3341C49.187 14.4378 49.1888 14.5521 49.1907 14.6743C49.2093 15.8786 49.2397 17.8438 47.7053 17.8438C47.1213 17.8438 46.8332 17.5946 46.4948 17.3018C46.0133 16.8851 45.4298 16.3802 43.746 16.3802H37.7406V23.641H37.7557C37.7557 27.9715 37.8825 28.2461 43.6313 28.2944C46.1572 28.2944 47.0263 28.1797 48.846 26.2C48.9199 26.1189 48.9975 26.0316 49.0784 25.9405ZM83.8525 28.8536C82.6514 28.2137 82.387 27.6048 81.8755 26.4271L81.8245 26.3097C80.3911 22.6219 78.7011 19.0157 75.964 16.0854C79.3439 14.5403 82.3707 11.8998 82.3707 7.97063C82.3707 5.33008 80.8106 2.97923 78.4416 1.80532C76.3654 0.75815 73.7248 0.679687 71.4373 0.679687H56.4481C55.5156 0.679687 54.3718 0.969394 54.3718 2.09502C54.3718 2.85249 54.6132 3.22065 55.6272 3.52847C56.608 3.76989 56.608 4.36439 56.608 5.99097V26.02C56.608 27.4836 56.5265 28.1445 55.4341 28.6122C54.8396 28.9019 54.3718 29.1584 54.3718 29.9008C54.3718 31.0264 55.5156 31.3343 56.4481 31.3343H64.4663C65.3988 31.3343 66.5425 31.0295 66.5425 29.9008C66.5425 29.1434 66.0929 28.8868 65.1905 28.4372C64.3063 27.9694 64.3063 27.3116 64.3063 26.0049H64.3214V18.551C66.0446 18.3427 67.5263 18.1496 68.492 17.8901C70.1337 19.7249 73.6765 25.5039 73.6765 27.6465C73.6765 28.2236 73.2367 28.4864 72.7896 28.7536C72.3271 29.0299 71.8568 29.3109 71.8568 29.9491C71.8568 31.3198 73.2749 31.3177 74.2881 31.3162L74.3857 31.3161H82.6454C83.4511 31.3161 84.8363 31.2347 84.8363 30.109C84.8652 29.4492 84.5139 29.2428 84.0618 28.9771C83.995 28.9378 83.9259 28.8972 83.8555 28.8536H83.8525ZM64.2581 15.331V7.24939C64.2581 4.94682 64.4995 3.65823 68.0091 3.65823C71.5188 3.65823 74.1262 5.17014 74.1262 8.80958C74.1262 13.7044 68.2325 15.2495 64.2581 15.331ZM98.3037 2.08526C98.3037 2.8397 97.836 3.09923 97.4497 3.25917H97.4527C96.149 3.93516 96.0676 4.51457 96.0676 5.9963V25.9951C96.0676 27.3018 96.0676 27.9597 96.9548 28.4274C97.8571 28.8771 98.3068 29.1336 98.3068 29.891C98.3068 31.0197 97.163 31.3245 96.2305 31.3245H88.2123C87.2798 31.3245 86.1361 31.0167 86.1361 29.891C86.1361 29.1487 86.6038 28.8922 87.1983 28.6025C88.2908 28.1347 88.3722 27.4738 88.3722 26.0102V5.98121C88.3722 4.35463 88.3722 3.76012 87.3884 3.5187C86.3745 3.21089 86.133 2.84272 86.133 2.08526C86.133 0.959628 87.2768 0.669922 88.2093 0.669922H96.2275C97.16 0.669922 98.3037 0.974717 98.3037 2.08526ZM158.255 0.678703H161.909L161.915 0.675685C162.978 0.675685 164.411 0.72397 164.426 2.02765C164.426 2.78511 163.925 3.07482 163.331 3.36452C163.272 3.39331 163.215 3.42086 163.161 3.44747L163.16 3.44774C162.269 3.88114 161.897 4.06224 161.897 5.19933C161.897 6.30117 162.014 7.95212 162.15 9.88404C162.342 12.6084 162.573 15.8916 162.573 18.9815C162.573 29.2027 157.051 31.9248 149.355 31.9248C142.433 31.9248 136.104 29.4291 136.104 18.7401C136.104 15.9789 136.299 12.7176 136.456 10.0931L136.456 10.0921C136.562 8.32557 136.651 6.84762 136.651 6.00508C136.651 4.3785 136.651 3.78399 135.667 3.54257C134.653 3.23476 134.411 2.86659 134.411 2.10913C134.411 0.983499 135.555 0.645508 136.488 0.645508H144.94C145.921 0.645508 147.017 0.953321 147.017 1.98238C147.017 2.86961 146.552 3.11103 145.794 3.41583C144.442 3.96204 144.361 4.55956 144.264 5.92662C144.053 9.11339 143.797 14.2496 143.797 19.1596C143.797 27.1144 147.499 28.7078 151.429 28.7078C155.596 28.7078 158.979 26.7915 158.979 18.9996C158.979 16.2219 158.815 13.6028 158.651 10.9758V10.9757V10.9756V10.9754V10.9753V10.9751V10.975V10.9748V10.9747V10.9745V10.9744V10.9743V10.9741V10.974V10.9739C158.529 9.01799 158.407 7.05769 158.351 5.0243C158.321 4.08631 157.946 3.90498 157.088 3.48889C157.018 3.45519 156.946 3.41994 156.87 3.38263L156.864 3.37954C156.287 3.07299 155.774 2.80068 155.774 2.04576C155.774 0.726988 157.193 0.678703 158.255 0.678703ZM173.516 7.05491C173.516 4.33288 176.383 2.99902 178.797 2.99902C183.194 2.99902 184.656 5.39606 185.723 7.14522C186.336 8.15002 186.818 8.94102 187.651 8.94102C188.714 8.94102 189.212 8.23184 189.212 7.21787V7.21757C189.212 6.20355 189.212 4.44745 188.907 3.45169C188.747 2.87227 188.279 2.53428 187.763 2.24458C184.978 0.811132 181.55 0.0717773 178.441 0.0717773C167.556 0.0717773 165.899 7.65545 165.899 9.6683C165.899 16.6111 171.64 17.88 176.649 18.9873C180.526 19.8441 183.964 20.6041 183.964 23.8217C183.964 27.1533 180.373 28.6682 177.476 28.6682C173.546 28.6682 171.18 26.8334 170.2 25.3366C168.347 22.5844 168.012 22.3249 166.865 22.3249C165.643 22.3249 164.789 23.4505 164.789 24.6274C164.789 26.432 167.493 31.9998 177.877 31.9998C187.489 31.9998 191.418 25.8345 191.418 21.3109C191.409 14.5104 185.806 13.2174 180.871 12.0786C176.985 11.1818 173.513 10.3806 173.513 7.06095L173.516 7.05491ZM202.106 27.9662C202.106 30.1528 200.334 31.9255 198.147 31.9255C195.96 31.9255 194.188 30.1528 194.188 27.9662C194.188 25.7795 195.96 24.0068 198.147 24.0068C200.334 24.0068 202.106 25.7795 202.106 27.9662ZM260.097 0.919922H255.431C254.731 0.919922 254.161 1.49028 254.161 2.19041V19.274C254.161 20.5445 253.922 21.6852 253.452 22.669C252.984 23.6438 252.317 24.4073 251.466 24.9384C250.615 25.4725 249.598 25.7411 248.448 25.7411C247.277 25.714 246.248 25.4031 245.397 24.8177C244.543 24.2292 243.876 23.4446 243.424 22.4819C242.965 21.5132 242.735 20.4359 242.735 19.274V2.19342C242.735 1.4933 242.165 0.92294 241.465 0.92294H236.799C236.099 0.92294 235.529 1.4933 235.529 2.19342V19.4853C235.529 21.9387 236.081 24.1327 237.168 26.0097C238.254 27.8898 239.796 29.3655 241.746 30.3976C243.692 31.4266 245.946 31.9487 248.451 31.9487C250.956 31.9487 253.21 31.4266 255.157 30.3976C257.106 29.3685 258.648 27.8898 259.735 26.0097C260.821 24.1327 261.373 21.9357 261.373 19.4853V2.19342C261.373 1.4933 260.803 0.92294 260.103 0.92294L260.097 0.919922ZM298.238 0.919922H293.572C292.871 0.919922 292.302 1.48874 292.302 2.19041V29.797C292.302 30.4987 292.871 31.0675 293.572 31.0675H298.238C298.94 31.0675 299.508 30.4987 299.508 29.797V2.19041C299.508 1.48874 298.94 0.919922 298.238 0.919922ZM326.041 0.919922H330.287L330.284 0.92294C330.984 0.92294 331.554 1.4933 331.554 2.19342V29.8C331.554 30.5002 330.984 31.0705 330.284 31.0705H324.17C323.539 31.0705 322.951 30.7295 322.634 30.1833L311.782 11.4037C311.685 11.2377 311.54 11.2136 311.462 11.2136C311.365 11.2136 311.269 11.2528 311.196 11.3162C311.145 11.3644 311.082 11.452 311.082 11.5908V29.797C311.082 30.4971 310.511 31.0675 309.811 31.0675H305.523C304.823 31.0675 304.252 30.4971 304.252 29.797V2.19041C304.252 1.49028 304.823 0.919922 305.523 0.919922H311.637C312.268 0.919922 312.856 1.26093 313.173 1.80715L324.067 20.632C324.164 20.795 324.309 20.8191 324.387 20.8191C324.574 20.8191 324.77 20.6864 324.77 20.4419V2.19041C324.77 1.49028 325.341 0.919922 326.041 0.919922ZM357.419 25.1596H343.311C343.103 25.1596 342.937 24.9906 342.937 24.7854V18.6201C342.937 18.4118 343.106 18.2459 343.311 18.2459H355.331C356.031 18.2459 356.601 17.6755 356.601 16.9754V14.2322C356.601 13.5321 356.031 12.9617 355.331 12.9617H343.311C343.103 12.9617 342.937 12.7927 342.937 12.5875V7.17666C342.937 6.96843 343.106 6.80246 343.311 6.80246H356.71C357.41 6.80246 357.981 6.2321 357.981 5.53197V2.19431C357.981 1.49419 357.41 0.923828 356.71 0.923828H337.251C336.551 0.923828 335.981 1.49419 335.981 2.19431V29.8009C335.981 30.501 336.551 31.0714 337.251 31.0714H357.422C358.122 31.0714 358.693 30.501 358.693 29.8009V26.4331C358.693 25.733 358.122 25.1626 357.422 25.1626L357.419 25.1596ZM374.161 12.6686C376.304 13.1424 378.127 13.6434 379.578 14.1594V14.1534C381.057 14.6815 382.346 15.5808 383.411 16.8301C384.485 18.0916 385.032 19.7996 385.032 21.903C385.032 23.8887 384.506 25.6601 383.468 27.166C382.433 28.6689 380.961 29.8549 379.096 30.6878C377.234 31.5177 375.025 31.9401 372.695 31.9401C370.365 31.9401 368.219 31.5177 366.318 30.6878C364.411 29.8549 362.857 28.6568 361.698 27.1298C360.723 25.8442 360.078 24.3866 359.782 22.8023C359.667 22.1897 360.081 21.5952 360.702 21.4745L364.924 20.6597C364.996 20.6446 365.072 20.6386 365.144 20.6386C365.685 20.6386 366.158 21.0248 366.27 21.556C366.427 22.3044 366.717 22.9985 367.133 23.6171C367.703 24.4711 368.497 25.1501 369.49 25.633C370.486 26.1188 371.621 26.3633 372.864 26.3633C373.914 26.3633 374.834 26.2003 375.598 25.8804C376.283 25.5938 376.835 25.2105 377.246 24.7397C377.795 24.109 378.06 23.2671 377.973 22.4311C377.907 21.7944 377.656 21.2934 377.209 20.9011C376.663 20.4213 375.987 20.041 375.194 19.7725C374.382 19.4979 373.175 19.2051 371.602 18.9003C369.46 18.4265 367.649 17.9256 366.225 17.4095C364.773 16.8845 363.512 15.9821 362.474 14.7328C361.43 13.4744 360.898 11.7693 360.898 9.66292C360.898 7.78888 361.366 6.09892 362.29 4.6353C363.213 3.17168 364.538 2.02191 366.225 1.21315C367.903 0.4074 369.84 0 371.983 0C373.956 0 375.764 0.362133 377.36 1.08338C378.96 1.80765 380.279 2.82766 381.286 4.11625C382.095 5.15738 382.681 6.33431 383.022 7.61988C383.103 7.92468 383.058 8.24155 382.898 8.51315C382.738 8.78173 382.482 8.97185 382.177 9.04427L378.323 9.97375C378.235 9.99487 378.145 10.0069 378.054 10.0069C377.52 10.0069 377.059 9.63878 376.929 9.10765C376.702 8.19024 376.241 7.41468 375.556 6.79905C374.656 5.99028 373.525 5.57987 372.194 5.57987C371.337 5.57987 370.573 5.72774 369.922 6.02046C369.279 6.30715 368.775 6.71153 368.425 7.21852C368.078 7.72249 367.9 8.29285 367.9 8.91149C367.9 9.69008 368.153 10.2846 368.678 10.7312C369.224 11.199 369.888 11.5641 370.652 11.8176C371.433 12.0802 372.61 12.3638 374.161 12.6686ZM409.81 16.8362C408.745 15.5868 407.456 14.6875 405.978 14.1594C404.526 13.6434 402.703 13.1424 400.561 12.6686C399.01 12.3638 397.833 12.0802 397.051 11.8176C396.288 11.5641 395.624 11.199 395.077 10.7312C394.552 10.2846 394.299 9.69008 394.299 8.91149C394.299 8.29285 394.477 7.72249 394.824 7.21852C395.174 6.71153 395.678 6.30715 396.321 6.02046C396.973 5.72774 397.736 5.57987 398.593 5.57987C399.924 5.57987 401.056 5.99028 401.958 6.79905C402.643 7.41468 403.105 8.19024 403.331 9.10765C403.461 9.63878 403.923 10.0069 404.457 10.0069C404.547 10.0069 404.638 9.99487 404.725 9.97375L408.579 9.04427C408.884 8.97185 409.14 8.78173 409.3 8.51315C409.463 8.24155 409.505 7.92468 409.424 7.61988C409.083 6.33431 408.497 5.15738 407.689 4.11625C406.681 2.82766 405.362 1.80765 403.763 1.08338C402.166 0.362133 400.359 0 398.385 0C396.242 0 394.305 0.4074 392.627 1.21315C390.94 2.02191 389.615 3.17168 388.692 4.6353C387.768 6.09892 387.301 7.78888 387.301 9.66292C387.301 11.7693 387.832 13.4744 388.876 14.7328C389.914 15.9821 391.175 16.8845 392.627 17.4095C394.051 17.9256 395.862 18.4265 398.005 18.9003C399.58 19.2051 400.784 19.4979 401.596 19.7725C402.387 20.041 403.066 20.4213 403.612 20.9011C404.058 21.2934 404.309 21.7944 404.375 22.4311C404.463 23.2671 404.197 24.109 403.648 24.7397C403.238 25.2105 402.685 25.5938 402 25.8804C401.237 26.2003 400.316 26.3633 399.266 26.3633C398.023 26.3633 396.888 26.1188 395.892 25.633C394.899 25.1501 394.106 24.4711 393.535 23.6171C393.119 22.9985 392.826 22.3044 392.672 21.556C392.561 21.0248 392.087 20.6386 391.547 20.6386C391.474 20.6386 391.399 20.6446 391.326 20.6597L387.104 21.4745C386.483 21.5952 386.069 22.1897 386.184 22.8023C386.48 24.3866 387.126 25.8442 388.1 27.1298C389.259 28.6568 390.813 29.8549 392.721 30.6878C394.622 31.5177 396.767 31.9401 399.097 31.9401C401.427 31.9401 403.636 31.5177 405.495 30.6878C407.363 29.8549 408.832 28.6689 409.868 27.166C410.906 25.6601 411.431 23.8887 411.431 21.903C411.431 19.7996 410.885 18.0916 409.81 16.8301V16.8362ZM228.349 15.5872C228.358 15.729 228.437 15.8437 228.563 15.9011H228.566C229.888 16.4925 232.96 18.3213 232.96 22.5794C232.96 23.4485 232.658 31.0714 222.259 31.0714H207.632C206.932 31.0714 206.362 30.501 206.362 29.8009V2.19431C206.362 1.49419 206.932 0.923828 207.632 0.923828H221.668C225.44 0.923828 228.253 2.03135 230.024 4.21924C231.702 6.28943 231.832 8.592 231.832 9.24987C231.832 12.838 229.517 14.6396 228.521 15.2492C228.403 15.3216 228.34 15.4484 228.349 15.5872ZM220.877 18.2006H213.942V18.2036C213.737 18.2036 213.568 18.3696 213.568 18.5778V25.1596C213.568 25.3648 213.734 25.5338 213.942 25.5338H220.877C225.736 25.5338 225.79 22.0935 225.79 21.9487C225.79 20.4851 224.951 19.6129 224.248 19.1391C223.364 18.5416 222.135 18.2006 220.877 18.2006ZM222.721 12.7686C223.337 12.4819 223.825 12.0715 224.178 11.5494V11.5555C224.526 11.0364 224.704 10.46 224.704 9.83834C224.704 9.15934 224.532 8.56182 224.197 8.05785C223.859 7.55086 223.37 7.1495 222.742 6.85979C222.105 6.56707 221.348 6.4192 220.494 6.4192H213.939C213.734 6.4192 213.565 6.58518 213.565 6.7934V12.832C213.565 13.0372 213.731 13.2062 213.939 13.2062H220.494C221.351 13.2062 222.099 13.0613 222.721 12.7686Z" fill="#111111"/>
</svg>
