<svg width="264" height="48" viewBox="0 0 264 48" fill="none" xmlns="http://www.w3.org/2000/svg">
<path d="M3.05716 35.6235C8.06841 38.5107 12.9941 39.9537 17.8365 39.9537C22.7622 39.9537 25.8205 37.5764 25.8205 33.755C25.8205 30.3567 23.0166 28.9125 17.581 26.9596L13.4185 25.601C5.85995 23.2225 2.1229 18.89 2.1229 12.6901C1.95293 1.2246 16.2224 -4.29656 32.3604 3.94183L29.3021 10.2273C25.2251 8.18994 21.4036 7.17012 17.9209 7.17012C13.0797 7.17012 10.0225 9.29302 10.0225 12.6901C10.0225 15.8329 12.231 17.447 16.5623 18.89L20.7237 20.1654C28.9621 22.8826 33.889 26.874 33.889 33.4139C33.889 42.0766 27.7735 47.2578 17.751 47.2578C11.9754 47.2578 6.11548 45.7304 0 42.3321L3.05716 35.6235Z" fill="#161616"/>
<path d="M76.2179 39.3583V46.4937H48.2744V1.22358H75.538V8.35773H55.9185V20.5875H73.925V27.3829H55.9185V39.3583H76.2179Z" fill="#161616"/>
<path d="M107.702 24.0712C112.544 24.0712 115.601 20.9273 115.601 16.0883C115.601 11.5014 112.374 8.35755 107.702 8.35755H98.6142V24.0712H107.702ZM90.8857 1.2234H108.127C112.714 1.2234 116.451 2.58316 119.254 5.38479C122.141 8.10317 123.5 11.6702 123.5 16.0883C123.5 22.3726 120.443 27.3839 115.261 29.5068L124.774 46.4946H116.366L107.957 31.2053H98.6142V46.4946H90.8857V1.2234Z" fill="#161616"/>
<path d="M138.488 31.0366V1.05348H146.217V29.9323C146.217 35.5368 150.124 39.4449 155.899 39.4449C161.676 39.4449 165.581 35.5368 165.581 29.9323V1.05348H173.227V31.0366C173.227 35.7923 171.612 39.7849 168.385 42.842C165.243 45.8148 161.08 47.2578 155.899 47.2578C150.719 47.2578 146.472 45.8148 143.329 42.842C140.102 39.7849 138.488 35.7923 138.488 31.0366Z" fill="#161616"/>
<path d="M206.533 24.0712C211.374 24.0712 214.431 20.9273 214.431 16.0883C214.431 11.5014 211.204 8.35755 206.533 8.35755H197.445V24.0712H206.533ZM189.716 1.2234H206.957C211.544 1.2234 215.281 2.58316 218.084 5.38479C220.971 8.10317 222.331 11.6702 222.331 16.0883C222.331 22.3726 219.274 27.3839 214.092 29.5068L223.604 46.4946H215.197L206.787 31.2053H197.445V46.4946H189.716V1.2234Z" fill="#161616"/>
<path d="M259.862 29.4188H246.838V46.2124H263.631V33.1882L259.862 29.4188Z" fill="#161616"/>
</svg>
