<?xml version="1.0" standalone="no"?>
<!DOCTYPE svg PUBLIC "-//W3C//DTD SVG 20010904//EN"
 "http://www.w3.org/TR/2001/REC-SVG-20010904/DTD/svg10.dtd">
<svg version="1.0" xmlns="http://www.w3.org/2000/svg"
 width="850.000000pt" height="604.000000pt" viewBox="0 0 850.000000 604.000000"
 preserveAspectRatio="xMidYMid meet">

<g transform="translate(0.000000,604.000000) scale(0.100000,-0.100000)"
fill="#000000" stroke="none">
<path d="M2253 5750 c-25 -10 -29 -25 -11 -37 7 -4 51 -19 98 -33 58 -17 85
-30 85 -40 0 -8 -37 -40 -83 -70 -103 -69 -130 -96 -114 -112 7 -7 63 -14 141
-17 81 -4 135 -11 142 -18 15 -15 -1 -37 -132 -185 -105 -118 -129 -159 -109
-182 18 -23 47 -13 198 66 75 39 143 68 155 66 21 -3 22 -8 22 -118 l0 -115
26 -3 c18 -2 41 10 81 43 55 45 72 53 82 36 3 -5 13 -57 21 -117 14 -99 33
-154 54 -154 26 0 42 40 96 233 21 76 37 81 87 29 39 -41 61 -51 73 -33 3 5
10 33 15 63 14 70 28 85 66 65 16 -8 49 -33 74 -54 124 -109 181 -137 195 -94
8 28 -1 61 -56 193 -27 64 -49 126 -49 137 0 29 30 27 142 -9 178 -56 228 -58
228 -9 0 33 -16 55 -126 172 -105 113 -126 146 -105 171 6 7 51 30 100 50 145
60 147 91 6 80 -147 -12 -286 -58 -293 -97 -2 -9 34 -55 87 -112 89 -95 110
-135 78 -148 -8 -3 -61 11 -120 30 -88 29 -109 33 -122 23 -24 -20 -18 -65 25
-167 59 -141 53 -155 -33 -75 -73 68 -107 92 -128 92 -17 0 -19 -8 -19 -67 0
-38 -5 -75 -10 -83 -9 -13 -14 -11 -33 11 -12 15 -30 40 -39 58 -26 47 -45 40
-64 -26 -30 -105 -40 -128 -54 -128 -12 0 -16 21 -21 91 -9 140 -23 147 -98
44 -28 -38 -56 -70 -63 -70 -8 0 -9 18 -3 63 14 109 12 141 -8 145 -10 2 -52
-12 -94 -32 -130 -62 -136 -46 -22 70 50 52 79 90 77 100 -4 20 -35 29 -130
39 -114 11 -124 40 -35 96 115 72 125 100 45 125 -62 19 -291 29 -325 14z"/>
<path d="M4710 5733 c0 -43 -11 -73 -26 -73 -8 0 -47 17 -88 37 -42 20 -78 34
-81 31 -8 -7 17 -57 57 -116 16 -23 28 -50 26 -60 -2 -9 -22 -27 -46 -40 -23
-13 -42 -28 -42 -33 0 -5 23 -20 50 -34 35 -18 50 -31 50 -45 0 -13 -19 -34
-50 -56 -27 -20 -50 -42 -50 -49 0 -7 19 -16 46 -20 25 -3 48 -13 51 -21 3 -7
-11 -43 -31 -79 -60 -108 -48 -121 41 -45 l58 50 18 -21 c9 -12 17 -36 17 -55
0 -47 14 -49 48 -7 l30 37 83 -39 c75 -35 92 -39 159 -39 139 1 259 74 317
192 24 50 27 69 28 157 0 87 -3 107 -26 156 -34 71 -87 125 -158 157 -79 37
-220 42 -305 13 -77 -27 -97 -26 -126 4 -31 33 -50 32 -50 -2z m405 -72 c84
-38 135 -133 135 -251 0 -163 -95 -270 -240 -270 -87 0 -187 55 -164 91 9 15
31 10 88 -18 31 -15 59 -24 63 -20 4 4 1 28 -5 54 -7 25 -9 50 -5 54 4 4 31 3
58 -1 69 -12 95 -12 95 1 0 5 -23 35 -52 65 -28 30 -49 56 -47 58 2 2 30 16
62 30 55 24 71 42 45 51 -7 2 -43 7 -80 10 -74 7 -81 16 -52 61 25 37 8 46
-50 29 -63 -19 -95 -19 -102 0 -24 60 155 100 251 56z m-315 -132 c16 -31 25
-39 38 -34 9 4 28 10 41 13 l24 5 -22 -32 c-13 -18 -22 -34 -20 -36 2 -1 22
-10 44 -19 31 -13 36 -19 25 -26 -8 -5 -24 -10 -36 -10 -31 0 -35 -9 -18 -42
19 -38 13 -44 -27 -27 -31 12 -33 11 -59 -19 -14 -18 -30 -32 -33 -32 -4 0 -7
18 -7 40 l0 40 -40 0 c-46 0 -51 14 -15 42 14 11 25 26 25 33 0 8 -11 22 -25
31 -36 23 -31 34 15 34 37 0 40 2 50 40 6 22 13 40 15 40 3 0 14 -18 25 -41z"/>
<path d="M5919 5745 c-38 -21 -49 -58 -46 -163 2 -88 0 -95 -22 -113 -30 -24
-46 -24 -71 1 -24 24 -25 57 -3 127 21 66 11 99 -37 127 -30 18 -51 21 -140
20 -103 0 -220 -24 -220 -43 0 -5 21 -14 48 -21 95 -23 218 -96 209 -123 -2
-6 -38 -17 -81 -24 -77 -13 -116 -27 -116 -41 0 -5 33 -18 73 -31 84 -27 152
-64 167 -91 29 -54 -5 -110 -65 -110 -42 0 -81 18 -114 54 -41 44 -53 35 -45
-34 8 -70 -4 -95 -67 -137 -36 -24 -38 -28 -22 -37 11 -7 92 -11 213 -11 176
0 202 2 270 23 212 66 287 204 230 427 -26 101 -25 128 4 162 l24 28 -56 12
c-75 15 -102 15 -133 -2z m89 -76 c2 -18 -3 -29 -14 -33 -27 -11 -54 3 -54 28
0 30 9 38 40 34 19 -2 26 -10 28 -29z m-22 -210 c28 -31 26 -105 -4 -146 -35
-49 -115 -84 -209 -89 -78 -4 -78 -4 -36 10 121 40 182 105 207 219 8 32 17
34 42 6z"/>
<path d="M2746 5738 c-18 -10 -17 -12 15 -27 36 -17 48 -43 29 -65 -6 -8 -36
-24 -68 -37 -69 -27 -80 -35 -65 -50 8 -8 29 -8 78 0 115 20 130 1 65 -85 -22
-29 -40 -58 -40 -64 0 -20 30 -10 76 25 75 57 114 42 114 -44 0 -22 5 -52 10
-66 15 -39 36 -17 51 52 25 108 64 118 125 33 59 -83 94 -70 55 20 -41 96 -23
132 56 111 98 -28 111 1 24 54 -82 49 -90 91 -24 116 32 12 29 25 -8 33 -80
16 -132 2 -178 -48 -36 -39 -74 -35 -127 14 -41 38 -47 40 -106 40 -35 0 -72
-6 -82 -12z"/>
<path d="M3662 5599 c-23 -7 -32 -15 -30 -27 5 -25 81 -74 119 -75 31 -2 34 1
43 36 14 54 0 72 -55 74 -24 1 -59 -3 -77 -8z"/>
<path d="M2279 5365 c-41 -22 -66 -116 -35 -128 31 -12 176 109 161 134 -9 14
-97 10 -126 -6z"/>
<path d="M3520 5202 c0 -26 70 -140 134 -220 52 -65 73 -82 97 -82 15 0 39 57
39 94 0 29 -8 42 -52 81 -57 50 -194 145 -209 145 -5 0 -9 -8 -9 -18z"/>
<path d="M2427 5024 c-78 -42 -56 -168 38 -221 47 -27 122 -40 137 -25 6 6 11
39 11 74 1 140 -90 224 -186 172z"/>
<path d="M5820 5018 c-30 -11 -81 -21 -112 -21 -62 -2 -63 -3 -36 -77 12 -33
25 -40 78 -40 109 1 227 99 178 148 -16 16 -43 14 -108 -10z"/>
<path d="M5998 4998 c3 -36 -2 -49 -28 -80 -40 -48 -122 -88 -196 -95 -65 -6
-94 -24 -94 -58 0 -38 32 -57 97 -56 168 0 331 149 293 267 -11 32 -43 64 -65
64 -6 0 -9 -18 -7 -42z"/>
<path d="M4661 5002 c-47 -23 -72 -61 -78 -115 -5 -46 10 -73 22 -38 15 48
111 76 163 47 21 -11 22 -14 8 -25 -26 -22 -19 -41 31 -87 45 -42 47 -43 66
-26 31 28 58 91 64 148 7 69 0 89 -27 74 -17 -9 -31 -6 -72 14 -62 31 -128 34
-177 8z"/>
<path d="M5230 4989 c-24 -11 -65 -22 -90 -25 -104 -12 -110 -14 -110 -38 0
-86 86 -201 185 -247 50 -24 73 -29 141 -29 94 0 171 20 214 56 25 22 30 33
30 72 0 53 -43 155 -79 186 -21 19 -23 19 -69 3 -65 -24 -84 -22 -117 13 -33
35 -44 36 -105 9z m35 -145 c28 -8 86 -18 129 -22 90 -8 108 -24 52 -47 -88
-37 -220 -2 -257 67 -12 23 8 23 76 2z"/>
<path d="M3214 4949 c-46 -11 -117 -66 -139 -110 -20 -37 -19 -42 4 -29 31 16
59 12 72 -12 14 -26 6 -106 -16 -148 -33 -63 -97 -62 -110 2 -11 58 -16 68
-30 68 -36 0 -50 -112 -22 -167 35 -66 85 -93 175 -93 56 0 79 5 128 30 32 16
78 47 100 70 l42 40 22 -71 c32 -99 87 -159 152 -166 77 -9 131 25 153 95 6
21 4 23 -14 17 -36 -11 -51 11 -51 74 0 101 47 147 62 61 12 -71 17 -79 34
-56 18 26 19 146 0 189 -21 49 -59 79 -109 84 -59 7 -105 -16 -165 -81 l-47
-52 -1 47 c-5 155 -103 239 -240 208z m96 -103 c0 -47 -44 -215 -69 -265 -26
-50 -51 -55 -51 -8 0 45 43 207 70 261 26 55 50 61 50 12z m100 -148 c0 -32
-7 -47 -35 -75 -19 -19 -40 -33 -47 -30 -31 10 -2 154 36 179 19 13 46 -31 46
-74z m240 -20 c0 -92 -44 -218 -75 -218 -34 0 -3 186 40 248 25 35 35 26 35
-30z m-120 -32 c0 -44 -19 -96 -35 -96 -28 0 -34 67 -9 105 24 36 44 32 44 -9z"/>
<path d="M2268 4919 c-53 -39 -61 -134 -15 -177 45 -42 84 -48 153 -22 l27 11
-46 29 c-51 32 -76 72 -86 136 l-6 43 -27 -20z"/>
<path d="M4950 4770 c-22 -83 -85 -130 -175 -130 l-56 0 16 30 c9 17 13 35 10
40 -3 6 -30 10 -59 10 -40 0 -62 6 -89 25 -35 23 -37 23 -47 5 -37 -69 -31
-200 11 -254 26 -33 37 -33 49 0 10 24 13 26 48 18 20 -5 69 -9 108 -9 93 0
155 35 193 109 28 54 35 144 14 181 -10 17 -12 14 -23 -25z"/>
<path d="M2730 4793 c-63 -22 -47 -113 19 -113 58 0 80 63 35 99 -28 22 -30
23 -54 14z"/>
<path d="M6037 4755 c-45 -53 -123 -93 -210 -108 l-65 -11 14 -39 c41 -115
233 -305 287 -284 28 10 39 78 44 263 5 172 -1 225 -25 224 -4 -1 -24 -20 -45
-45z"/>
<path d="M2449 4671 c-63 -25 -107 -59 -134 -106 -30 -51 -67 -196 -54 -211 9
-11 32 -15 169 -30 100 -12 216 62 266 169 30 65 30 91 0 110 -13 9 -27 28
-31 44 -3 15 -12 31 -18 35 -23 15 -151 7 -198 -11z m150 -69 c11 -21 27 -44
35 -51 36 -30 4 -77 -40 -61 -30 12 -62 56 -70 95 -7 42 0 55 31 55 18 0 30
-10 44 -38z m-179 -47 c0 -32 41 -94 76 -116 34 -21 35 -23 18 -36 -29 -21
-61 -15 -98 18 -40 34 -53 79 -37 122 11 29 41 37 41 12z"/>
<path d="M2787 4642 c-35 -39 -9 -102 41 -102 28 0 62 34 62 60 0 27 -35 60
-63 60 -13 0 -31 -8 -40 -18z"/>
<path d="M5043 4600 c-26 -11 -41 -56 -26 -79 6 -9 22 -20 38 -26 23 -8 30 -6
50 17 27 31 24 61 -8 83 -24 17 -24 17 -54 5z"/>
<path d="M5190 4557 c0 -47 35 -177 60 -228 31 -59 106 -137 161 -164 106 -54
258 -54 391 0 71 29 84 30 129 11 73 -31 128 -112 129 -191 0 -78 -81 -203
-114 -176 -34 28 -39 66 -22 164 21 125 21 127 -9 127 -17 0 -43 -17 -79 -52
-107 -105 -91 -188 52 -269 28 -17 52 -31 52 -32 0 -2 -22 -45 -48 -97 l-48
-95 -21 65 c-58 179 -125 330 -165 367 -38 36 -168 78 -168 55 0 -12 29 -49
110 -142 134 -154 196 -264 206 -361 l5 -54 -35 67 c-63 121 -120 190 -228
272 -44 33 -70 73 -103 157 -27 69 -46 94 -88 115 -27 14 -27 14 -22 -9 4 -13
-1 -51 -9 -84 -9 -34 -16 -78 -16 -98 0 -53 48 -98 126 -120 118 -32 148 -48
201 -102 56 -57 131 -196 155 -285 7 -27 15 -48 18 -48 3 0 18 22 33 50 65
116 153 121 171 9 l7 -43 24 29 c65 79 98 221 60 258 -29 29 -55 19 -125 -49
-38 -36 -74 -64 -79 -63 -17 6 41 119 102 201 85 112 107 163 107 244 -1 114
-51 192 -172 264 -31 18 -63 45 -71 59 -9 14 -40 57 -70 94 -111 138 -191 174
-355 160 -116 -9 -178 -6 -214 13 -37 19 -38 19 -38 -19z m259 -127 c59 -61
81 -60 81 6 0 24 4 44 10 44 5 0 19 -19 31 -42 47 -95 94 -116 105 -48 9 53
29 51 43 -5 8 -31 22 -53 46 -72 50 -40 45 -52 -19 -50 -49 2 -58 -1 -88 -30
-19 -18 -39 -33 -46 -33 -20 0 -14 30 13 62 46 54 -2 66 -88 21 -74 -39 -82
-42 -96 -34 -8 5 -2 17 19 39 16 18 30 36 30 41 0 17 -39 22 -95 12 -30 -6
-62 -8 -70 -4 -26 9 -11 27 31 36 52 10 59 19 40 55 -35 68 -12 69 53 2z"/>
<path d="M4756 4444 c-19 -18 -21 -65 -4 -82 17 -17 64 -15 82 4 21 21 20 57
-2 77 -23 21 -56 22 -76 1z"/>
<path d="M4954 4450 c-32 -13 -54 -50 -54 -91 0 -83 100 -120 161 -60 73 74
-9 191 -107 151z"/>
<path d="M2736 4417 c-23 -35 -46 -106 -46 -144 0 -131 140 -199 212 -103 51
69 18 181 -69 239 -55 37 -77 39 -97 8z"/>
<path d="M3340 4412 c-25 -20 -39 -76 -40 -157 l0 -60 -24 42 c-60 104 -130
163 -195 163 -45 0 -67 -14 -80 -51 -20 -58 -9 -127 14 -89 10 17 76 11 119
-10 44 -21 112 -78 103 -86 -3 -3 -38 -1 -79 5 -123 17 -186 -8 -228 -89 -23
-45 -33 -111 -20 -130 5 -8 10 -10 10 -4 0 24 84 97 137 120 30 14 82 27 116
31 l61 6 -22 -34 c-11 -19 -25 -61 -30 -94 -5 -33 -15 -61 -21 -63 -16 -5 -14
-24 10 -103 17 -54 19 -73 9 -84 -15 -18 -6 -47 32 -108 20 -31 28 -55 25 -70
-5 -17 7 -35 53 -84 54 -56 62 -62 83 -52 47 21 50 43 12 101 -19 29 -41 61
-49 70 -9 10 -20 45 -25 79 -6 34 -18 70 -27 80 -14 15 -15 31 -10 88 5 50 3
75 -6 90 -11 18 -8 29 20 86 19 36 37 65 42 65 5 0 24 -18 43 -40 43 -50 62
-113 52 -175 l-6 -46 33 17 c96 48 141 119 119 187 -16 48 -41 67 -119 93
l-67 21 53 12 c77 16 178 14 218 -5 19 -9 42 -30 51 -47 l15 -31 16 29 c8 16
15 46 15 67 0 123 -147 156 -308 69 -43 -23 -79 -40 -82 -38 -2 2 11 26 29 53
27 40 39 50 66 52 17 2 32 5 32 8 0 28 -77 115 -112 127 -9 3 -26 -2 -38 -11z"/>
<path d="M4607 4362 c-10 -10 -17 -28 -17 -40 0 -28 34 -62 60 -62 27 0 60 35
60 63 0 50 -70 76 -103 39z"/>
<path d="M2570 4282 c-34 -33 -40 -45 -40 -81 0 -59 33 -91 93 -91 55 0 61 6
37 38 -27 34 -42 95 -34 137 8 46 -5 45 -56 -3z"/>
<path d="M4759 4271 c-49 -50 -37 -121 27 -147 95 -40 172 84 93 150 -41 35
-83 34 -120 -3z"/>
<path d="M5122 4284 c-46 -32 -17 -114 40 -114 28 0 58 37 58 69 0 31 -30 61
-60 61 -9 0 -26 -7 -38 -16z"/>
<path d="M2260 4275 c0 -29 28 -83 48 -94 33 -17 76 -13 112 12 53 35 48 44
-24 49 -47 3 -74 10 -95 26 -36 26 -41 27 -41 7z"/>
<path d="M4594 4190 c-85 -35 -60 -164 31 -164 72 0 111 84 63 138 -26 29 -63
39 -94 26z"/>
<path d="M4957 4172 c-37 -40 -9 -102 46 -102 28 0 57 32 57 62 0 25 -36 58
-63 58 -13 0 -31 -8 -40 -18z"/>
<path d="M2211 4145 c-1 -42 18 -98 40 -121 41 -43 127 -25 209 45 l35 30 -40
-9 c-105 -24 -175 -9 -224 50 -19 23 -20 23 -20 5z"/>
<path d="M5143 4110 c-68 -27 -48 -133 25 -133 42 0 72 28 72 68 0 49 -51 83
-97 65z"/>
<path d="M4760 4050 c-24 -24 -25 -48 -4 -78 19 -27 64 -29 87 -4 53 58 -28
137 -83 82z"/>
<path d="M2643 4021 c-10 -11 -33 -62 -52 -113 -67 -187 -76 -211 -87 -215
-24 -8 -24 35 -2 155 16 91 19 128 12 140 -32 49 -69 -6 -95 -138 -21 -110
-36 -160 -49 -160 -20 0 -29 35 -32 123 -2 53 -7 98 -12 100 -5 1 -17 -9 -27
-23 -63 -86 -77 -424 -23 -559 32 -80 98 -57 144 52 l22 50 -21 42 c-12 23
-21 53 -21 66 0 29 26 69 44 69 7 0 37 -25 66 -56 48 -51 52 -58 46 -92 -3
-22 -33 -77 -77 -140 -124 -180 -161 -294 -140 -432 20 -124 73 -205 187 -285
l65 -45 15 35 c17 41 18 98 3 128 -7 12 -49 61 -95 108 -96 100 -113 140 -94
218 17 74 22 77 61 38 24 -24 47 -36 78 -41 54 -8 61 -3 32 28 -31 32 -42 90
-30 146 5 25 54 137 108 250 133 277 180 422 148 464 -23 32 -43 12 -77 -76
-39 -103 -75 -170 -106 -199 -41 -38 -38 -2 11 151 46 142 55 218 28 227 -6 2
-20 -5 -30 -16z"/>
<path d="M4921 3994 c-60 -50 -46 -140 26 -170 46 -20 86 -10 118 28 80 95
-48 223 -144 142z"/>
<path d="M3670 3965 c27 -72 1 -120 -110 -199 -87 -63 -115 -101 -105 -145 8
-36 62 -87 148 -141 54 -34 67 -47 65 -64 -4 -31 -41 -31 -98 1 -49 27 -50 27
-65 8 -53 -66 -71 -178 -41 -250 21 -50 93 -123 151 -153 38 -19 69 -26 130
-29 l80 -4 -35 20 c-60 33 -83 65 -88 124 -4 50 0 62 53 163 68 130 67 141
-11 219 -36 36 -54 61 -54 78 0 13 22 54 50 92 55 74 68 117 51 168 -11 33
-79 110 -113 128 -16 8 -17 7 -8 -16z"/>
<path d="M3009 3936 c-81 -64 -150 -164 -179 -261 -6 -22 -15 -97 -19 -167 -6
-102 -12 -132 -26 -148 -22 -24 -52 -26 -76 -4 -33 30 -53 -12 -27 -59 36 -68
128 -59 170 16 8 14 15 86 18 187 4 115 10 173 20 190 14 24 15 21 21 -50 4
-41 19 -109 34 -150 35 -99 44 -200 21 -223 -21 -21 -55 -22 -62 -2 -9 23 -24
7 -24 -26 0 -63 78 -100 134 -64 60 40 59 118 -6 301 -39 110 -43 127 -43 221
0 68 4 106 13 115 10 10 12 4 12 -26 0 -94 48 -215 158 -400 79 -130 97 -175
88 -211 -12 -48 -87 -44 -94 4 -4 28 -23 22 -40 -13 -17 -35 -9 -68 26 -106
75 -84 212 -21 212 99 0 55 -24 103 -139 273 -103 154 -145 237 -160 324 -11
60 -4 140 18 197 6 15 9 27 8 27 -1 0 -27 -20 -58 -44z"/>
<path d="M4559 3915 c-13 -28 -25 -77 -27 -111 -4 -57 -2 -63 27 -97 18 -20
61 -52 97 -72 74 -42 103 -83 85 -121 -14 -31 -42 -30 -72 2 -24 26 -70 54
-88 54 -5 0 -17 -7 -25 -16 -12 -12 -16 -37 -16 -108 0 -83 -3 -97 -25 -130
l-26 -38 33 7 c59 13 126 54 164 100 45 55 68 70 82 52 7 -9 3 -27 -14 -62
-30 -62 -30 -67 2 -104 29 -35 83 -49 120 -32 33 15 31 56 -6 105 -17 22 -30
50 -30 63 0 21 4 23 59 23 33 0 63 -4 66 -10 3 -5 -1 -23 -10 -39 -8 -17 -15
-32 -15 -34 0 -13 34 -14 97 -2 91 18 143 39 143 61 0 31 -140 148 -185 156
-17 3 -20 -3 -20 -37 l0 -40 -49 1 c-52 0 -76 19 -76 59 0 37 29 63 102 91 40
15 83 38 97 52 l24 24 -64 23 c-35 12 -79 28 -97 36 -28 12 -36 12 -60 -2 -25
-14 -27 -20 -28 -83 -2 -71 -12 -93 -38 -83 -13 5 -16 24 -16 94 0 50 -6 99
-13 113 -7 15 -40 39 -82 61 -50 26 -73 44 -81 65 l-12 29 -23 -50z"/>
<path d="M5136 3894 c-34 -33 -7 -94 42 -94 24 0 62 32 62 53 0 47 -70 75
-104 41z"/>
<path d="M5165 3717 c-4 -9 -4 -29 -1 -43 9 -36 -9 -54 -55 -54 -22 0 -39 -4
-39 -9 0 -4 36 -32 81 -61 120 -78 149 -143 93 -210 -39 -46 -86 -67 -206 -94
-41 -9 -34 -24 17 -37 51 -13 54 -23 24 -74 -27 -45 -20 -53 24 -26 50 31 65
27 77 -19 18 -67 40 -46 40 38 0 67 17 117 52 158 82 93 128 -27 71 -188 -15
-42 -24 -80 -21 -84 4 -3 21 5 38 20 17 14 35 26 39 26 4 0 22 -18 40 -40 17
-22 36 -40 42 -40 6 0 9 23 7 57 l-3 58 43 9 c23 5 42 12 42 15 0 3 -22 19
-50 34 -88 50 -154 157 -118 194 35 34 117 -21 170 -114 16 -29 34 -53 38 -53
5 0 10 21 12 48 l3 47 48 1 c26 0 50 3 53 7 3 3 -15 17 -40 32 -25 15 -46 30
-46 35 0 4 11 24 25 44 30 44 32 61 8 51 -85 -36 -126 -47 -175 -48 -65 -2
-84 10 -74 47 8 31 59 59 139 76 31 6 57 15 57 20 0 5 -18 14 -40 20 -44 12
-49 24 -24 71 22 44 13 53 -26 24 -44 -33 -61 -32 -88 5 -36 48 -43 38 -36
-54 7 -92 -4 -139 -37 -156 -52 -29 -77 37 -55 146 9 42 16 85 16 95 0 26 -22
24 -50 -6 -13 -14 -28 -25 -34 -25 -6 0 -25 17 -43 37 -27 33 -32 35 -38 20z"/>
<path d="M5874 3330 c-54 -22 -82 -108 -53 -162 10 -19 9 -20 -7 -13 -11 4
-39 10 -64 12 -35 4 -51 1 -72 -16 -39 -31 -53 -80 -34 -125 12 -30 29 -42
105 -80 96 -48 115 -68 132 -131 l11 -40 34 40 c51 60 101 165 113 242 21 122
-20 238 -94 269 -39 16 -42 16 -71 4z"/>
<path d="M3816 3248 c-20 -31 -31 -88 -22 -122 4 -16 28 -40 65 -65 66 -45 74
-58 57 -92 -19 -39 -96 -62 -192 -56 -94 5 -153 28 -211 81 -22 20 -45 36 -50
36 -37 0 -48 -114 -18 -185 46 -108 146 -193 253 -216 113 -23 242 14 321 93
75 76 103 213 62 303 -23 51 -41 66 -123 105 -68 32 -97 61 -115 115 l-10 30
-17 -27z m198 -372 c-2 -46 -45 -112 -92 -139 -48 -28 -62 -18 -62 48 0 52 2
57 31 73 17 9 45 27 63 39 45 31 61 25 60 -21z"/>
<path d="M4507 3209 c-220 -52 -374 -279 -337 -498 41 -244 255 -401 493 -362
135 22 241 102 297 224 34 74 50 152 29 144 -78 -32 -133 -42 -239 -42 -105 0
-120 2 -175 28 -33 16 -70 37 -82 48 -31 30 -57 21 -63 -21 -4 -29 -10 -36
-32 -38 -20 -2 -28 -9 -28 -23 0 -89 158 -132 289 -80 63 25 82 18 62 -25 -13
-28 -3 -43 27 -44 6 0 12 -9 12 -21 0 -35 -77 -62 -169 -58 -181 9 -318 142
-292 285 15 79 40 105 141 139 106 36 121 54 78 97 -20 20 -20 22 -3 35 12 8
47 13 95 13 77 0 100 9 100 40 0 21 -31 50 -53 50 -9 0 -19 4 -22 10 -6 10 21
25 68 34 18 4 27 13 27 25 0 41 -125 63 -223 40z"/>
<path d="M4805 3163 c18 -41 15 -74 -10 -148 -36 -104 -32 -156 19 -202 30
-27 44 -33 82 -33 86 0 137 54 137 144 0 95 -59 183 -155 232 -57 29 -83 32
-73 7z m115 -115 c30 -32 24 -92 -9 -96 -13 -2 -28 1 -33 6 -11 11 1 112 13
112 4 0 18 -10 29 -22z"/>
<path d="M2699 3121 c-22 -23 -29 -39 -29 -69 0 -35 -4 -41 -30 -52 -17 -7
-37 -22 -45 -34 -17 -24 -20 -79 -5 -107 17 -30 68 -52 106 -44 29 5 37 2 62
-26 24 -27 35 -31 73 -31 36 1 49 6 72 33 23 25 28 39 25 69 -3 35 -1 39 29
50 62 22 81 97 38 149 -28 32 -55 41 -97 30 -23 -6 -33 -2 -62 27 -45 45 -94
47 -137 5z m141 -131 c32 -32 24 -75 -18 -91 -58 -22 -101 60 -50 95 30 21 44
20 68 -4z"/>
<path d="M5097 2973 c-3 -27 -9 -73 -12 -104 -7 -54 -6 -56 25 -82 37 -32 73
-34 117 -7 78 47 55 173 -41 220 -69 33 -83 28 -89 -27z"/>
<path d="M3110 2933 c-51 -20 -66 -72 -27 -97 12 -8 49 -22 82 -31 75 -21 138
-57 164 -94 12 -16 28 -62 36 -102 21 -99 49 -147 109 -184 43 -26 59 -30 118
-30 58 0 72 3 85 20 34 45 -8 139 -87 193 -24 16 -48 22 -84 22 -73 0 -90 16
-111 101 -19 75 -62 150 -108 183 -20 15 -46 21 -95 23 -37 1 -74 0 -82 -4z
m471 -384 c46 -32 50 -79 7 -79 -61 0 -125 62 -98 95 16 19 51 13 91 -16z"/>
<path d="M4602 2856 c-2 -70 -1 -76 25 -96 43 -33 96 -14 108 40 9 43 -19 88
-68 111 -23 10 -46 19 -52 19 -6 0 -11 -33 -13 -74z"/>
<path d="M5430 2890 c-20 -10 -64 -50 -99 -89 -70 -79 -118 -111 -203 -136
-75 -21 -86 -35 -67 -87 8 -23 21 -46 30 -51 30 -18 118 36 229 139 92 87 104
95 118 81 13 -13 13 -20 2 -46 -13 -33 -36 -55 -148 -141 -39 -30 -76 -66 -82
-79 -10 -21 -6 -28 34 -67 53 -51 112 -71 159 -55 52 19 90 55 157 150 63 89
90 109 98 68 6 -30 -45 -124 -91 -171 -25 -25 -73 -59 -106 -76 -69 -34 -77
-57 -40 -104 28 -36 59 -33 116 12 98 78 182 184 231 290 62 136 13 295 -110
356 -66 33 -173 36 -228 6z m221 -60 c25 -13 46 -34 57 -56 16 -35 16 -36 -7
-55 -74 -60 -194 30 -151 112 14 25 50 24 101 -1z"/>
<path d="M2950 2719 c-32 -13 -78 -56 -96 -91 -8 -15 -14 -50 -14 -78 0 -123
89 -223 217 -245 114 -19 200 80 158 181 -22 54 -62 92 -107 105 -51 13 -78
-1 -78 -41 0 -39 47 -70 108 -70 55 0 58 -31 5 -59 -78 -40 -188 24 -200 118
-11 78 80 131 172 101 137 -45 203 -244 114 -344 -73 -84 -255 -67 -358 33
-69 67 -95 138 -95 258 1 102 -3 104 -58 46 -55 -58 -75 -158 -49 -250 18 -66
88 -161 154 -209 145 -107 352 -112 453 -10 70 69 88 164 58 296 -37 162 -157
270 -299 269 -33 0 -71 -5 -85 -10z"/>
<path d="M3996 2627 c-15 -11 -17 -21 -10 -58 7 -38 7 -69 0 -76 -1 -1 -20 7
-42 17 -43 21 -84 20 -117 -5 -10 -7 -37 -48 -60 -91 -54 -101 -82 -118 -179
-110 -66 6 -68 6 -68 -18 0 -58 86 -116 185 -124 118 -9 253 51 302 135 22 37
25 52 20 94 -7 60 7 71 58 43 28 -15 36 -16 49 -5 18 15 21 52 5 68 -8 8 -8
17 1 33 9 17 8 26 -5 47 -14 20 -22 24 -46 19 -21 -4 -29 -2 -29 9 0 8 -9 19
-19 25 -25 13 -24 13 -45 -3z"/>
<path d="M4937 2406 c-61 -23 -77 -42 -77 -97 0 -44 3 -50 33 -66 50 -28 178
-25 239 5 39 19 48 29 54 57 8 47 -2 73 -39 92 -43 22 -161 27 -210 9z"/>
<path d="M4154 2343 c-36 -121 -146 -212 -287 -238 -27 -5 -39 -13 -43 -30 -3
-13 -19 -35 -34 -50 -34 -33 -107 -44 -162 -26 -30 10 -37 19 -52 68 -14 42
-31 70 -71 110 -30 29 -58 53 -63 53 -5 0 -12 -24 -14 -53 -9 -106 -76 -156
-208 -157 l-75 -1 43 -39 c62 -56 119 -80 209 -89 85 -9 102 -15 175 -67 194
-138 450 -164 645 -66 l56 29 31 -34 c40 -44 89 -55 180 -42 81 11 130 36 134
67 3 21 0 22 -85 22 -48 0 -104 5 -123 10 -59 16 -124 64 -158 116 -38 59 -50
74 -61 74 -4 0 -35 -22 -69 -49 -34 -27 -87 -59 -119 -71 -107 -41 -298 -37
-334 6 -10 12 3 14 78 14 153 0 269 44 381 144 84 75 107 74 147 -5 50 -98
130 -159 208 -159 58 0 94 40 127 141 25 76 30 84 56 89 38 7 42 35 11 68 -13
15 -28 40 -32 57 -11 48 -34 56 -64 24 -18 -20 -23 -21 -71 -9 -30 7 -84 10
-126 8 -70 -5 -74 -4 -99 22 -15 15 -49 40 -76 54 -46 25 -50 26 -55 9z m336
-203 c24 -24 26 -57 3 -82 -33 -37 -103 -11 -103 39 0 28 33 63 60 63 11 0 29
-9 40 -20z"/>
<path d="M5166 2206 c-77 -40 -80 -41 -180 -41 -55 0 -115 4 -133 9 -29 7 -35
5 -61 -23 -66 -72 -103 -212 -72 -270 33 -62 133 -77 272 -42 196 50 338 177
338 300 0 66 -32 114 -73 110 -7 -1 -47 -20 -91 -43z m4 -125 c0 -24 -8 -48
-21 -65 -27 -35 -107 -75 -164 -83 l-46 -6 11 27 c5 15 10 47 10 71 l0 44 53
6 c28 4 72 15 97 25 61 24 60 25 60 -19z"/>
<path d="M4043 1324 c-40 -20 -95 -101 -121 -180 -59 -177 -62 -344 -10 -552
l21 -85 -40 -38 c-46 -43 -107 -63 -159 -53 -82 15 -138 108 -115 190 16 57
13 151 -5 190 -20 43 -48 52 -83 27 -38 -28 -62 -84 -76 -180 -25 -167 -116
-229 -179 -120 -14 23 -44 100 -67 171 -70 217 -97 221 -242 32 -83 -108 -95
-120 -112 -106 -7 6 -23 49 -36 96 -16 63 -26 84 -39 84 -37 0 -60 -46 -100
-196 -77 -290 -76 -282 -58 -300 33 -33 64 -13 254 160 119 108 158 136 191
136 31 0 68 -49 119 -159 51 -109 86 -151 124 -151 29 0 61 30 128 123 24 31
46 57 50 57 14 0 28 -16 61 -67 18 -29 48 -66 67 -83 29 -25 43 -30 87 -30 75
0 123 16 198 66 37 24 72 44 78 44 6 0 30 -17 54 -39 88 -80 157 -90 270 -38
l59 27 36 -28 c32 -25 43 -27 121 -27 122 0 177 28 297 151 50 52 95 94 101
94 11 0 23 -26 44 -95 30 -101 66 -144 128 -152 143 -19 314 230 329 480 4 75
2 90 -13 107 -27 29 -62 25 -100 -13 -44 -44 -60 -117 -44 -198 27 -138 -22
-276 -91 -254 -33 11 -66 83 -110 239 -44 160 -63 206 -83 206 -29 0 -50 -31
-96 -146 -59 -145 -99 -212 -154 -259 -64 -55 -151 -69 -201 -32 -15 11 -10
17 43 55 124 91 158 190 102 300 -52 102 -137 113 -227 30 -81 -75 -131 -213
-121 -336 5 -60 4 -64 -20 -73 -13 -5 -34 -9 -45 -9 -39 0 -109 42 -139 82
l-28 40 40 79 c61 122 98 244 109 359 21 217 -17 343 -113 379 -37 14 -46 14
-84 -5z m76 -173 c27 -27 35 -78 28 -185 -9 -135 -61 -306 -93 -306 -28 0 -38
53 -38 215 -1 126 3 172 17 217 23 75 51 94 86 59z m417 -429 c35 -23 44 -98
20 -157 -13 -29 -66 -75 -87 -75 -12 0 -39 80 -39 116 0 73 65 144 106 116z"/>
<path d="M3554 1281 c-57 -35 -70 -135 -23 -177 26 -24 82 -23 110 2 26 23 49
74 49 109 0 33 -50 85 -82 85 -13 0 -37 -9 -54 -19z"/>
<path d="M2418 1213 c-56 -58 -61 -114 -20 -235 60 -183 18 -463 -85 -560 -37
-36 -73 -48 -139 -48 -62 0 -85 9 -132 53 -56 54 -74 121 -79 292 -4 128 -1
173 21 305 14 86 23 166 19 178 -8 31 -45 38 -89 15 -53 -25 -70 -54 -99 -163
-54 -206 -56 -417 -4 -554 29 -75 95 -148 167 -183 52 -26 66 -28 172 -28 107
0 119 2 168 28 108 57 195 185 228 334 21 98 29 332 15 433 -12 82 -32 137
-55 152 -24 16 -63 7 -88 -19z"/>
<path d="M6475 891 c-45 -21 -111 -86 -147 -146 -13 -22 -43 -84 -67 -137 -24
-54 -48 -98 -52 -98 -22 0 -41 58 -55 166 -17 129 -25 154 -53 154 -28 0 -49
-30 -76 -114 -67 -206 -171 -320 -291 -320 -54 0 -109 25 -101 47 2 7 34 24
72 40 125 50 175 105 175 193 0 38 -7 61 -29 95 -113 179 -364 34 -379 -219
-2 -42 1 -96 7 -120 16 -56 62 -107 116 -128 60 -23 165 -15 231 17 63 30 143
110 185 185 l33 59 12 -45 c6 -25 19 -75 29 -113 20 -77 47 -117 79 -117 35 0
49 22 130 198 80 175 124 244 176 280 44 29 65 28 86 -7 31 -52 92 -66 137
-31 53 42 43 114 -22 157 -44 30 -137 31 -196 4z m-750 -176 c38 -37 34 -85
-11 -134 -34 -39 -98 -70 -112 -56 -15 15 -6 143 12 170 31 48 76 56 111 20z"/>
</g>
</svg>
